<svg width="48.84" height="48.84" xmlns="http://www.w3.org/2000/svg">

 <g>
  <title>background</title>
  <rect fill="none" id="canvas_background" height="402" width="582" y="-1" x="-1"/>
 </g>
 <g>
  <title>Layer 1</title>
  <g id="svg_1">
   <g id="svg_2">
    <g id="svg_3">
     <path fill="#999999" id="svg_4" d="m46.503,48.839l-44.166,0c-1.291,0 -2.337,-1.047 -2.337,-2.337l0,-44.165c0,-1.29 1.046,-2.337 2.337,-2.337l44.166,0c1.292,0 2.337,1.047 2.337,2.337l0,44.165c0,1.29 -1.046,2.337 -2.337,2.337zm-41.829,-4.673l39.492,0l0,-39.492l-39.492,0l0,39.492z"/>
    </g>
    <g id="svg_5">
     <polygon fill="#999999" id="svg_6" points="11.015,8.724 12.295,11.317 15.157,11.734 13.086,13.752 13.576,16.603 11.015,15.257 8.455,16.603      8.945,13.752 6.873,11.734 9.736,11.317    "/>
     <path fill="#999999" id="svg_7" d="m13.576,18.161c-0.248,0 -0.498,-0.059 -0.725,-0.179l-1.835,-0.965l-1.835,0.965c-0.521,0.277 -1.16,0.231 -1.641,-0.119c-0.479,-0.349 -0.72,-0.939 -0.62,-1.523l0.351,-2.043l-1.483,-1.447c-0.425,-0.414 -0.578,-1.032 -0.395,-1.596c0.184,-0.564 0.67,-0.975 1.258,-1.061l2.052,-0.3l0.915,-1.858c0.527,-1.065 2.269,-1.065 2.795,0l0.917,1.858l2.052,0.3c0.588,0.085 1.074,0.496 1.258,1.061s0.03,1.182 -0.395,1.596l-1.484,1.447l0.351,2.043c0.1,0.584 -0.141,1.175 -0.62,1.523c-0.272,0.198 -0.594,0.298 -0.916,0.298zm-2.561,-4.463c0.173,0 0.347,0.029 0.513,0.086c-0.008,-0.352 0.104,-0.695 0.317,-0.977c-0.336,-0.101 -0.629,-0.313 -0.83,-0.603c-0.201,0.289 -0.494,0.502 -0.83,0.603c0.213,0.281 0.325,0.625 0.317,0.977c0.166,-0.057 0.34,-0.086 0.513,-0.086z"/>
    </g>
    <g id="svg_8">
     <path fill="#999999" id="svg_9" d="m37.053,14.222l-17.426,0c-0.861,0 -1.558,-0.697 -1.558,-1.558c0,-0.861 0.697,-1.558 1.558,-1.558l17.426,0c0.86,0 1.558,0.697 1.558,1.558c-0.001,0.861 -0.699,1.558 -1.558,1.558z"/>
    </g>
    <g id="svg_10">
     <polygon fill="#999999" id="svg_11" points="11.015,21.189 12.295,23.782 15.157,24.2 13.086,26.217 13.576,29.069 11.015,27.721 8.455,29.069 8.945,26.217      6.873,24.2 9.736,23.782    "/>
     <path fill="#999999" id="svg_12" d="m13.576,30.626c-0.248,0 -0.498,-0.06 -0.725,-0.181l-1.835,-0.963l-1.835,0.963c-0.521,0.279 -1.16,0.233 -1.641,-0.117c-0.479,-0.35 -0.72,-0.939 -0.62,-1.523l0.351,-2.043l-1.483,-1.447c-0.425,-0.414 -0.578,-1.031 -0.395,-1.596c0.184,-0.564 0.67,-0.976 1.258,-1.061l2.052,-0.3l0.915,-1.858c0.527,-1.065 2.269,-1.065 2.795,0l0.917,1.858l2.052,0.3c0.588,0.085 1.074,0.496 1.258,1.061c0.184,0.564 0.03,1.182 -0.395,1.596l-1.484,1.447l0.351,2.043c0.1,0.584 -0.141,1.176 -0.62,1.523c-0.272,0.198 -0.594,0.298 -0.916,0.298zm-2.561,-4.463c0.173,0 0.347,0.029 0.513,0.088c-0.008,-0.352 0.104,-0.695 0.317,-0.977c-0.336,-0.102 -0.629,-0.313 -0.83,-0.604c-0.201,0.289 -0.494,0.502 -0.83,0.604c0.213,0.28 0.325,0.625 0.317,0.977c0.166,-0.059 0.34,-0.088 0.513,-0.088z"/>
    </g>
    <g id="svg_13">
     <path fill="#999999" id="svg_14" d="m37.053,26.686l-17.426,0c-0.861,0 -1.558,-0.697 -1.558,-1.558c0,-0.861 0.697,-1.559 1.558,-1.559l17.426,0c0.86,0 1.558,0.697 1.558,1.559c-0.001,0.861 -0.699,1.558 -1.558,1.558z"/>
    </g>
    <g id="svg_15">
     <polygon fill="#999999" id="svg_16" points="11.015,33.655 12.295,36.247 15.157,36.663 13.086,38.681 13.576,41.532 11.015,40.186 8.455,41.532      8.945,38.681 6.873,36.663 9.736,36.247    "/>
     <path fill="#999999" id="svg_17" d="m13.576,43.091c-0.248,0 -0.498,-0.06 -0.725,-0.181l-1.835,-0.963l-1.835,0.963c-0.521,0.277 -1.16,0.231 -1.641,-0.118c-0.479,-0.349 -0.72,-0.939 -0.62,-1.523l0.351,-2.043l-1.483,-1.446c-0.425,-0.414 -0.578,-1.031 -0.395,-1.597c0.184,-0.563 0.67,-0.975 1.258,-1.062l2.052,-0.299l0.915,-1.857c0.527,-1.064 2.269,-1.064 2.795,0l0.917,1.857l2.052,0.299c0.588,0.086 1.074,0.496 1.258,1.062s0.03,1.183 -0.395,1.597l-1.484,1.446l0.351,2.043c0.1,0.584 -0.141,1.175 -0.62,1.523c-0.272,0.199 -0.594,0.299 -0.916,0.299zm-2.561,-4.463c0.173,0 0.347,0.028 0.513,0.087c-0.008,-0.352 0.104,-0.695 0.317,-0.977c-0.336,-0.101 -0.629,-0.313 -0.83,-0.604c-0.201,0.289 -0.494,0.502 -0.83,0.604c0.213,0.281 0.325,0.625 0.317,0.977c0.166,-0.058 0.34,-0.087 0.513,-0.087z"/>
    </g>
    <g id="svg_18">
     <path fill="#999999" id="svg_19" d="m37.053,39.151l-17.426,0c-0.861,0 -1.558,-0.697 -1.558,-1.558s0.697,-1.558 1.558,-1.558l17.426,0c0.86,0 1.558,0.697 1.558,1.558s-0.699,1.558 -1.558,1.558z"/>
    </g>
   </g>
  </g>
  <g id="svg_20"/>
  <g id="svg_21"/>
  <g id="svg_22"/>
  <g id="svg_23"/>
  <g id="svg_24"/>
  <g id="svg_25"/>
  <g id="svg_26"/>
  <g id="svg_27"/>
  <g id="svg_28"/>
  <g id="svg_29"/>
  <g id="svg_30"/>
  <g id="svg_31"/>
  <g id="svg_32"/>
  <g id="svg_33"/>
  <g id="svg_34"/>
 </g>
</svg>