<?xml version="1.0" encoding="utf-8"?>
<!-- Generator: Adobe Illustrator 14.0.0, SVG Export Plug-In . SVG Version: 6.00 Build 43363)  -->
<!DOCTYPE svg PUBLIC "-//W3C//DTD SVG 1.1//EN" "http://www.w3.org/Graphics/SVG/1.1/DTD/svg11.dtd">
<svg version="1.1" id="Layer_1" xmlns="http://www.w3.org/2000/svg" xmlns:xlink="http://www.w3.org/1999/xlink" x="0px" y="0px"
	 width="642.143px" height="80.572px" viewBox="0 0 642.143 80.572" enable-background="new 0 0 642.143 80.572"
	 xml:space="preserve">
<g>
	<path d="M4,32.768V20.393c0-11,5.499-16.5,16.5-16.5h74.25v16.5H20.5v12.375h57.75c11,0,16.5,5.5,16.5,16.5v12.375
		c0,11.001-5.5,16.5-16.5,16.5H4v-16.5h74.25V49.268H20.5C9.499,49.268,4,43.769,4,32.768z"/>
	<path d="M103,61.643v-41.25c0-11,5.499-16.5,16.5-16.5h70.125v16.5H119.5v41.25h70.125v16.5H119.5
		C108.499,78.143,103,72.644,103,61.643z"/>
	<path d="M197.875,49.268v-16.5h28.875v16.5H197.875z"/>
	<path d="M329.875,61.643c0,11.001-5.501,16.5-16.5,16.5H235v-16.5h78.375v-16.5h-41.25l20.625-24.75H235v-16.5h90.75l-20.625,24.75
		h8.25c11,0,16.5,5.5,16.5,16.5V61.643z"/>
	<path d="M433,61.643c0,11.001-5.5,16.5-16.5,16.5h-61.875c-11.001,0-16.5-5.499-16.5-16.5v-41.25c0-11,5.499-16.5,16.5-16.5H416.5
		c11,0,16.5,5.5,16.5,16.5V61.643z M416.5,61.643v-41.25h-61.875v41.25H416.5z"/>
	<path d="M536.125,61.643c0,11.001-5.5,16.5-16.5,16.5H457.75c-11,0-16.5-5.499-16.5-16.5v-41.25c0-11,5.5-16.5,16.5-16.5h61.875
		c11,0,16.5,5.5,16.5,16.5V61.643z M519.625,61.643v-41.25H457.75v41.25H519.625z"/>
	<path d="M639.25,61.643c0,11.001-5.5,16.5-16.5,16.5h-61.875c-11,0-16.5-5.499-16.5-16.5v-41.25c0-11,5.5-16.5,16.5-16.5h61.875
		c11,0,16.5,5.5,16.5,16.5V61.643z M622.75,61.643v-41.25h-61.875v41.25H622.75z"/>
</g>
</svg>
