<svg width="59.999999999999986" height="59.999999999999986" xmlns="http://www.w3.org/2000/svg">
 <g>
  <title>background</title>
  <rect fill="none" id="canvas_background" height="62" width="62" y="-1" x="-1"/>
 </g>

 <g>
  <title>Layer 1</title>
  <g id="svg_1">
   <path fill="#306856" id="svg_2" d="m19,45c2.206,0 4,-1.794 4,-4s-1.794,-4 -4,-4s-4,1.794 -4,4s1.794,4 4,4zm0,-6c1.103,0 2,0.897 2,2s-0.897,2 -2,2s-2,-0.897 -2,-2s0.897,-2 2,-2z"/>
   <path fill="#306856" id="svg_3" d="m44,12c-2.206,0 -4,1.794 -4,4s1.794,4 4,4s4,-1.794 4,-4s-1.794,-4 -4,-4zm0,6c-1.103,0 -2,-0.897 -2,-2s0.897,-2 2,-2s2,0.897 2,2s-0.897,2 -2,2z"/>
   <path fill="#306856" id="svg_4" d="m19,49c4.411,0 8,-3.589 8,-8s-3.589,-8 -8,-8s-8,3.589 -8,8s3.589,8 8,8zm0,-14c3.309,0 6,2.691 6,6s-2.691,6 -6,6s-6,-2.691 -6,-6s2.691,-6 6,-6z"/>
   <g id="svg_5">
    <g id="svg_6">
     <g id="svg_7">
      <path fill="#306856" id="svg_8" d="m35.529,24.491c-0.007,-0.007 -0.013,-0.013 -0.02,-0.02c0.003,0.004 0.002,0.011 0.005,0.014s0.011,0.003 0.015,0.006z"/>
      <path fill="#306856" id="svg_9" d="m35.516,7.546c0.016,-0.016 0.032,-0.032 0.048,-0.047c-0.016,0.006 -0.038,0.005 -0.049,0.016c-0.005,0.005 0.002,0.022 0.001,0.031z"/>
      <path fill="#306856" id="svg_10" d="m52.503,24.434c-0.023,0.023 -0.045,0.046 -0.068,0.068c0.016,-0.006 0.039,-0.006 0.05,-0.017c0.012,-0.011 0.012,-0.034 0.018,-0.051z"/>
      <path fill="#306856" id="svg_11" d="m57.649,18.36c-0.006,-0.016 -0.006,-0.034 -0.013,-0.05c-1.161,-2.74 -2.739,-5.284 -4.643,-7.551c-1.12,-1.336 -2.354,-2.572 -3.686,-3.695c-2.284,-1.929 -4.85,-3.528 -7.617,-4.699c-0.015,-0.007 -0.032,-0.007 -0.048,-0.012c-3.581,-1.515 -7.516,-2.353 -11.642,-2.353c-1.738,0 -3.44,0.157 -5.098,0.442c-0.003,0 -0.006,0 -0.008,0c-0.028,0.005 -0.056,0.012 -0.085,0.017c-0.405,0.071 -0.808,0.148 -1.207,0.235c-0.023,0.005 -0.047,0.011 -0.07,0.016c-1.591,0.351 -3.134,0.83 -4.621,1.423c-0.142,0.056 -0.286,0.11 -0.427,0.168c-0.22,0.092 -0.436,0.19 -0.654,0.287c-0.22,0.098 -0.44,0.195 -0.657,0.298c-0.171,0.082 -0.34,0.167 -0.51,0.251c-0.05,0.025 -0.1,0.049 -0.15,0.074c-0.013,0.006 -0.028,0.006 -0.041,0.012c-0.059,0.03 -0.116,0.064 -0.175,0.094c-0.142,0.073 -0.282,0.149 -0.422,0.224c-0.122,0.065 -0.243,0.132 -0.364,0.199c-0.142,0.078 -0.285,0.153 -0.425,0.234c-0.169,0.097 -0.334,0.199 -0.501,0.299c-0.083,0.05 -0.167,0.101 -0.25,0.152c-0.35,0.215 -0.696,0.437 -1.038,0.666c-0.033,0.022 -0.066,0.044 -0.098,0.066c-0.179,0.121 -0.359,0.241 -0.535,0.366c-0.021,0.015 -0.04,0.03 -0.061,0.045c-0.376,0.268 -0.745,0.545 -1.109,0.83c-0.011,0.009 -0.023,0.017 -0.034,0.025c-0.002,0.002 -0.004,0.005 -0.006,0.007c-1.644,1.293 -3.162,2.759 -4.518,4.388c-0.018,0.021 -0.027,0.047 -0.042,0.07c-4.303,5.194 -6.894,11.856 -6.894,19.112c0,2.995 0.447,5.887 1.268,8.618c0.002,0.007 -0.001,0.015 0.001,0.022c0.01,0.032 0.022,0.062 0.031,0.094c0.166,0.544 0.344,1.083 0.54,1.613c0.069,0.189 0.148,0.373 0.221,0.56c0.121,0.31 0.243,0.619 0.374,0.923c0.134,0.313 0.276,0.62 0.42,0.927c0.068,0.143 0.135,0.286 0.205,0.427c2.928,6.002 7.763,10.836 13.766,13.762c0.134,0.066 0.27,0.13 0.405,0.194c0.313,0.147 0.627,0.292 0.946,0.428c0.29,0.125 0.584,0.24 0.879,0.356c0.201,0.079 0.399,0.164 0.603,0.238c0.525,0.193 1.059,0.37 1.597,0.534c0.035,0.011 0.068,0.024 0.104,0.035c0.012,0.004 0.025,0.002 0.037,0.005c2.727,0.819 5.614,1.264 8.603,1.264c4.995,0 9.705,-1.234 13.852,-3.402c0.027,-0.011 0.055,-0.017 0.082,-0.031c0.073,-0.038 0.141,-0.082 0.214,-0.12c0.243,-0.131 0.481,-0.269 0.72,-0.406c0.224,-0.128 0.451,-0.252 0.671,-0.386c0.422,-0.256 0.837,-0.523 1.245,-0.8c0.175,-0.118 0.343,-0.245 0.515,-0.367c0.272,-0.193 0.543,-0.386 0.808,-0.588c0.149,-0.114 0.295,-0.231 0.442,-0.347c0.295,-0.232 0.585,-0.469 0.871,-0.712c0.107,-0.091 0.213,-0.183 0.318,-0.276c0.348,-0.304 0.688,-0.617 1.021,-0.937c0.039,-0.038 0.079,-0.074 0.118,-0.113c0.482,-0.468 0.952,-0.949 1.402,-1.448c0.015,-0.015 0.037,-0.021 0.051,-0.038c2.222,-2.475 3.994,-5.267 5.285,-8.31c0.047,-0.11 0.089,-0.222 0.134,-0.332c0.108,-0.262 0.218,-0.522 0.319,-0.788c0.004,-0.01 0.002,-0.021 0.005,-0.031c0.435,-1.152 0.799,-2.338 1.091,-3.552c0.008,-0.034 0.016,-0.069 0.024,-0.104c0.12,-0.507 0.227,-1.018 0.32,-1.534c0.005,-0.027 0.012,-0.053 0.017,-0.08c0.001,-0.006 0,-0.012 0.001,-0.018c0.305,-1.716 0.474,-3.478 0.474,-5.28c0,-4.126 -0.838,-8.059 -2.351,-11.64zm-28.649,-3.36l3.043,0c0.213,-2.527 1.233,-4.864 2.811,-6.731l-2.168,-2.168c-0.391,-0.391 -0.391,-1.023 0,-1.414s1.023,-0.391 1.414,0l2.166,2.166c1.395,-1.185 3.063,-2.069 4.917,-2.515c1.948,0.852 3.782,1.917 5.47,3.169c0.033,0.025 0.067,0.048 0.1,0.073c0.275,0.206 0.542,0.42 0.809,0.636c0.086,0.069 0.175,0.136 0.26,0.206c0.2,0.166 0.394,0.339 0.589,0.51c0.142,0.124 0.287,0.244 0.427,0.372c0.074,0.068 0.145,0.14 0.219,0.208c0.508,0.473 0.998,0.963 1.47,1.472c0.055,0.059 0.112,0.115 0.167,0.175c0.132,0.145 0.258,0.297 0.387,0.445c0.166,0.19 0.335,0.377 0.496,0.572c0.073,0.088 0.142,0.18 0.214,0.27c0.213,0.264 0.425,0.528 0.628,0.799c0.028,0.037 0.054,0.076 0.082,0.114c1.25,1.685 2.311,3.516 3.162,5.46c-0.446,1.854 -1.329,3.52 -2.514,4.915l2.164,2.168c0.391,0.391 0.391,1.023 0,1.414c-0.195,0.195 -0.451,0.293 -0.707,0.293s-0.512,-0.098 -0.707,-0.293l-2.166,-2.169c-1.868,1.579 -4.206,2.599 -6.733,2.813l0,3.04c0,0.553 -0.448,1 -1,1s-1,-0.447 -1,-1l0,-3.051c-2.559,-0.212 -4.89,-1.227 -6.743,-2.796l-2.157,2.161c-0.195,0.195 -0.451,0.293 -0.707,0.293s-0.512,-0.098 -0.707,-0.293c-0.391,-0.391 -0.391,-1.023 0,-1.414l2.157,-2.161c-1.568,-1.852 -2.58,-4.182 -2.793,-6.739l-3.05,0c-0.552,0 -1,-0.447 -1,-1s0.448,-1 1,-1zm-15.99,-7.228c0.081,-0.062 0.159,-0.127 0.24,-0.188c0.402,-0.301 0.816,-0.584 1.233,-0.863c0.203,-0.135 0.403,-0.276 0.609,-0.406c0.027,-0.017 0.053,-0.034 0.08,-0.051c0.422,-0.264 0.856,-0.507 1.291,-0.748c0.192,-0.106 0.379,-0.22 0.573,-0.322c1.172,0.429 1.964,1.536 1.964,2.806c0,1.654 -1.346,3 -3,3s-3,-1.346 -3,-3c0,-0.075 0.004,-0.151 0.01,-0.228zm-4.658,7.241c0.677,-1 0.851,-2.209 0.509,-3.342c0.1,-0.115 0.198,-0.232 0.299,-0.345c0.255,-0.285 0.518,-0.562 0.784,-0.835c0.275,-0.283 0.557,-0.559 0.843,-0.83c0.133,-0.125 0.269,-0.247 0.404,-0.369c0.573,2.128 2.502,3.708 4.809,3.708c2.757,0 5,-2.243 5,-5c0,-1.527 -0.693,-2.904 -1.807,-3.827c0.612,-0.256 1.235,-0.488 1.865,-0.7c0.065,-0.022 0.129,-0.044 0.194,-0.066c0.65,-0.214 1.308,-0.407 1.975,-0.573c-0.157,0.745 -0.097,1.53 0.193,2.268c0.5,1.274 1.602,2.19 2.947,2.449l0.633,0.121l0,1.086l-0.667,0.102c-1.353,0.208 -2.488,1.081 -3.036,2.336c-0.548,1.256 -0.417,2.683 0.352,3.816l0.361,0.534l-0.768,0.767l-0.177,-0.13c-0.688,-0.505 -1.498,-0.771 -2.339,-0.771c-1.98,0 -3.635,1.417 -3.935,3.37l-0.034,0.218l-1.085,0l-0.122,-0.632c-0.359,-1.869 -2.003,-3.226 -3.909,-3.226c-0.842,0 -1.651,0.268 -2.339,0.771l-0.544,0.399l-0.768,-0.765l0.362,-0.534zm29.562,34.393c-0.166,0.372 -0.531,0.594 -0.914,0.594c-0.136,0 -0.273,-0.027 -0.406,-0.086l-3.405,-1.505c-1.306,2.51 -3.275,4.616 -5.688,6.122l1.15,1.771c0.301,0.464 0.169,1.083 -0.294,1.384c-0.168,0.109 -0.357,0.161 -0.543,0.161c-0.327,0 -0.648,-0.16 -0.84,-0.455l-1.237,-1.904c-1.255,0.578 -2.595,1.018 -4.019,1.261c-0.003,-0.001 -0.005,-0.001 -0.008,-0.002c-0.493,-0.152 -0.977,-0.322 -1.458,-0.5c-0.225,-0.083 -0.446,-0.175 -0.668,-0.264c-0.23,-0.092 -0.459,-0.186 -0.686,-0.283c-0.297,-0.129 -0.593,-0.262 -0.885,-0.401c-0.107,-0.051 -0.213,-0.104 -0.32,-0.156c-5.57,-2.738 -10.103,-7.271 -12.839,-12.841c-0.051,-0.104 -0.102,-0.208 -0.152,-0.313c-0.14,-0.293 -0.273,-0.59 -0.403,-0.889c-0.098,-0.227 -0.191,-0.456 -0.283,-0.686c-0.089,-0.221 -0.18,-0.442 -0.263,-0.666c-0.178,-0.482 -0.348,-0.968 -0.501,-1.462c0,-0.002 -0.001,-0.003 -0.001,-0.005c0.271,-1.588 0.771,-3.081 1.455,-4.455l-2.413,-1.393c-0.478,-0.276 -0.642,-0.888 -0.366,-1.366c0.276,-0.478 0.886,-0.644 1.366,-0.366l2.413,1.393c1.627,-2.442 3.898,-4.386 6.563,-5.615l-1.202,-3.118c-0.2,-0.515 0.055,-1.095 0.57,-1.294c0.514,-0.202 1.094,0.055 1.294,0.569l1.206,3.127c1.538,-0.485 3.167,-0.763 4.863,-0.763c1.963,0 3.836,0.373 5.576,1.022c0.203,-0.481 0.361,-0.842 0.411,-0.956l1.099,-2.473c0.226,-0.504 0.815,-0.73 1.32,-0.508c0.504,0.225 0.732,0.815 0.508,1.32l-1.099,2.473c-0.04,0.089 -0.234,0.434 -0.51,0.903c3.165,1.633 5.702,4.298 7.203,7.538l3.129,-1.251c0.517,-0.203 1.095,0.055 1.294,0.569c0.2,0.515 -0.055,1.094 -0.57,1.294l-3.127,1.251c0.487,1.523 0.766,3.136 0.766,4.818c0,1.961 -0.375,3.831 -1.021,5.571l3.427,1.515c0.505,0.225 0.732,0.815 0.508,1.32zm17.467,-7.617c-0.018,0.039 -0.036,0.077 -0.054,0.115c-0.992,2.097 -2.245,4.064 -3.716,5.856c-0.398,-0.68 -0.611,-1.454 -0.611,-2.26c0,-2.481 2.019,-4.5 4.5,-4.5c0.076,0 0.151,0.002 0.226,0.006c-0.113,0.262 -0.225,0.525 -0.345,0.783zm1.095,-2.716c-0.322,-0.049 -0.648,-0.073 -0.976,-0.073c-3.584,0 -6.5,2.916 -6.5,6.5c0,1.386 0.44,2.705 1.242,3.808c-0.355,0.373 -0.717,0.739 -1.093,1.092c-0.037,0.035 -0.073,0.07 -0.11,0.104c-0.25,0.233 -0.507,0.459 -0.766,0.683c-0.098,0.085 -0.195,0.172 -0.295,0.256c-0.203,0.172 -0.412,0.337 -0.621,0.502c-0.16,0.127 -0.318,0.255 -0.481,0.378c-0.16,0.121 -0.323,0.238 -0.486,0.356c-0.152,0.11 -0.304,0.219 -0.458,0.326c0.215,-0.959 0.125,-1.974 -0.283,-2.909c-0.65,-1.49 -1.998,-2.527 -3.604,-2.774l-1.045,-0.161l0,-1.777l0.994,-0.19c1.597,-0.308 2.905,-1.395 3.499,-2.908c0.594,-1.513 0.375,-3.199 -0.587,-4.511l-0.626,-0.853l1.257,-1.258l1.281,0.869c0.787,0.532 1.698,0.814 2.634,0.814c2.262,0 4.213,-1.61 4.64,-3.828l0.292,-1.519l1.777,0l0.161,1.046c0.141,0.915 0.53,1.739 1.137,2.414c-0.244,1.23 -0.577,2.436 -0.983,3.613z"/>
     </g>
     <path fill="#306856" id="svg_12" d="m33.91,35.221c-0.004,-0.01 -0.008,-0.019 -0.012,-0.028c0.001,0.004 0.001,0.008 0.002,0.012c0.003,0.006 0.007,0.01 0.01,0.016z"/>
    </g>
   </g>
  </g>
  <g id="svg_13"/>
  <g id="svg_14"/>
  <g id="svg_15"/>
  <g id="svg_16"/>
  <g id="svg_17"/>
  <g id="svg_18"/>
  <g id="svg_19"/>
  <g id="svg_20"/>
  <g id="svg_21"/>
  <g id="svg_22"/>
  <g id="svg_23"/>
  <g id="svg_24"/>
  <g id="svg_25"/>
  <g id="svg_26"/>
  <g id="svg_27"/>
 </g>
</svg>