<?xml version="1.0" encoding="utf-8"?>
<svg width="700pt" height="700pt" version="1.1" viewBox="0 0 700 700" xmlns="http://www.w3.org/2000/svg">
  <defs>
    <symbol id="p" overflow="visible">
      <path d="m31.266-1.875c-1.6172 0.84375-3.2969 1.4766-5.0469 1.8906-1.7422 0.42578-3.5586 0.64062-5.4531 0.64062-5.668 0-10.156-1.582-13.469-4.75-3.3125-3.1641-4.9688-7.4609-4.9688-12.891 0-5.4375 1.6562-9.7383 4.9688-12.906 3.3125-3.1641 7.8008-4.75 13.469-4.75 1.8945 0 3.7109 0.21484 5.4531 0.64062 1.75 0.42969 3.4297 1.0586 5.0469 1.8906v7.0469c-1.625-1.1133-3.2305-1.9258-4.8125-2.4375-1.5742-0.51953-3.2344-0.78125-4.9844-0.78125-3.1367 0-5.6016 1.0078-7.3906 3.0156-1.793 2-2.6875 4.7617-2.6875 8.2812 0 3.5117 0.89453 6.2734 2.6875 8.2812 1.7891 2 4.2539 3 7.3906 3 1.75 0 3.4102-0.25391 4.9844-0.76562 1.582-0.51953 3.1875-1.332 4.8125-2.4375z"/>
    </symbol>
    <symbol id="i" overflow="visible">
      <path d="m22.875-18.578c-0.71094-0.33203-1.418-0.57812-2.125-0.73438-0.71094-0.15625-1.418-0.23438-2.125-0.23438-2.1055 0-3.7266 0.67188-4.8594 2.0156-1.125 1.3438-1.6875 3.2656-1.6875 5.7656v11.766h-8.1562v-25.531h8.1562v4.2031c1.0508-1.6758 2.2539-2.8945 3.6094-3.6562 1.3633-0.76953 2.9922-1.1562 4.8906-1.1562 0.26953 0 0.56641 0.011719 0.89062 0.03125 0.32031 0.023437 0.78516 0.074219 1.3906 0.15625z"/>
    </symbol>
    <symbol id="b" overflow="visible">
      <path d="m29.391-12.828v2.3281h-19.062c0.19531 1.9062 0.88281 3.3398 2.0625 4.2969 1.1875 0.96094 2.8438 1.4375 4.9688 1.4375 1.7188 0 3.4766-0.25391 5.2812-0.76562 1.8008-0.50781 3.6484-1.2812 5.5469-2.3125v6.2969c-1.9297 0.73047-3.8594 1.2773-5.7969 1.6406-1.9297 0.375-3.8555 0.5625-5.7812 0.5625-4.6172 0-8.2031-1.1719-10.766-3.5156s-3.8438-5.6328-3.8438-9.875c0-4.1641 1.2539-7.4414 3.7656-9.8281 2.5195-2.3828 5.9844-3.5781 10.391-3.5781 4.0078 0 7.2188 1.2109 9.625 3.625 2.4062 2.418 3.6094 5.6484 3.6094 9.6875zm-8.375-2.7188c0-1.5391-0.45312-2.7852-1.3594-3.7344-0.90625-0.95703-2.0898-1.4375-3.5469-1.4375-1.5859 0-2.8711 0.44922-3.8594 1.3438-0.98047 0.88672-1.5898 2.1641-1.8281 3.8281z"/>
    </symbol>
    <symbol id="a" overflow="visible">
      <path d="m15.359-11.484c-1.6992 0-2.9805 0.29297-3.8438 0.875-0.85547 0.57422-1.2812 1.4219-1.2812 2.5469 0 1.0312 0.34375 1.8398 1.0312 2.4219 0.69531 0.58594 1.6602 0.875 2.8906 0.875 1.5312 0 2.8164-0.54688 3.8594-1.6406 1.0508-1.1016 1.5781-2.4844 1.5781-4.1406v-0.9375zm12.469-3.0781v14.562h-8.2344v-3.7812c-1.0938 1.5547-2.3242 2.6836-3.6875 3.3906-1.3672 0.69531-3.0273 1.0469-4.9844 1.0469-2.6484 0-4.7969-0.76953-6.4531-2.3125-1.6484-1.5391-2.4688-3.5391-2.4688-6 0-2.9883 1.0312-5.1797 3.0938-6.5781 2.0625-1.4062 5.2969-2.1094 9.7031-2.1094h4.7969v-0.64062c0-1.2891-0.51172-2.2344-1.5312-2.8281-1.0117-0.60156-2.5938-0.90625-4.75-0.90625-1.75 0-3.3828 0.17969-4.8906 0.53125-1.5 0.34375-2.8984 0.86719-4.1875 1.5625v-6.2188c1.75-0.42578 3.5039-0.75 5.2656-0.96875 1.7578-0.21875 3.5234-0.32812 5.2969-0.32812 4.5938 0 7.9102 0.91406 9.9531 2.7344 2.0508 1.8125 3.0781 4.7617 3.0781 8.8438z"/>
    </symbol>
    <symbol id="h" overflow="visible">
      <path d="m12.828-32.766v7.2344h8.4062v5.8438h-8.4062v10.828c0 1.1797 0.23438 1.9805 0.70312 2.4062 0.47656 0.41797 1.4141 0.625 2.8125 0.625h4.1875v5.8281h-7c-3.2188 0-5.5-0.67188-6.8438-2.0156s-2.0156-3.625-2.0156-6.8438v-10.828h-4.0625v-5.8438h4.0625v-7.2344z"/>
    </symbol>
    <symbol id="g" overflow="visible">
      <path d="m21.281-21.781v-13.672h8.2031v35.453h-8.2031v-3.6875c-1.125 1.5-2.3672 2.6016-3.7188 3.2969-1.3438 0.69531-2.9062 1.0469-4.6875 1.0469-3.1484 0-5.7305-1.25-7.75-3.75-2.0234-2.5-3.0312-5.7109-3.0312-9.6406 0-3.9375 1.0078-7.1562 3.0312-9.6562 2.0195-2.5 4.6016-3.75 7.75-3.75 1.7578 0 3.3164 0.35547 4.6719 1.0625 1.3633 0.71094 2.6094 1.8086 3.7344 3.2969zm-5.375 16.516c1.75 0 3.082-0.63281 4-1.9062 0.91406-1.2812 1.375-3.1328 1.375-5.5625 0-2.4375-0.46094-4.2891-1.375-5.5625-0.91797-1.2812-2.25-1.9219-4-1.9219-1.7305 0-3.0586 0.64062-3.9844 1.9219-0.91797 1.2734-1.375 3.125-1.375 5.5625 0 2.4297 0.45703 4.2812 1.375 5.5625 0.92578 1.2734 2.2539 1.9062 3.9844 1.9062z"/>
    </symbol>
    <symbol id="f" overflow="visible">
      <path d="m17.5-5.2656c1.75 0 3.082-0.63281 4-1.9062 0.91406-1.2812 1.375-3.1328 1.375-5.5625 0-2.4375-0.46094-4.2891-1.375-5.5625-0.91797-1.2812-2.25-1.9219-4-1.9219s-3.0938 0.64844-4.0312 1.9375c-0.92969 1.2812-1.3906 3.1328-1.3906 5.5469 0 2.418 0.46094 4.2656 1.3906 5.5469 0.9375 1.2812 2.2812 1.9219 4.0312 1.9219zm-5.4219-16.516c1.125-1.4883 2.3672-2.5859 3.7344-3.2969 1.3633-0.70703 2.9375-1.0625 4.7188-1.0625 3.1445 0 5.7266 1.25 7.75 3.75 2.0195 2.5 3.0312 5.7188 3.0312 9.6562 0 3.9297-1.0117 7.1406-3.0312 9.6406-2.0234 2.5-4.6055 3.75-7.75 3.75-1.7812 0-3.3555-0.35156-4.7188-1.0469-1.3672-0.70703-2.6094-1.8047-3.7344-3.2969v3.6875h-8.1562v-35.453h8.1562z"/>
    </symbol>
    <symbol id="e" overflow="visible">
      <path d="m0.5625-25.531h8.1719l6.8594 17.328 5.8281-17.328h8.1562l-10.734 27.953c-1.0742 2.832-2.3281 4.8164-3.7656 5.9531-1.4375 1.1328-3.3359 1.7031-5.6875 1.7031h-4.7188v-5.3594h2.5469c1.3828 0 2.3906-0.22656 3.0156-0.67188 0.63281-0.4375 1.1289-1.2266 1.4844-2.3594l0.21875-0.70312z"/>
    </symbol>
    <symbol id="d" overflow="visible">
      <path d="m27.969-32.953v7.2031c-1.875-0.83203-3.7031-1.4609-5.4844-1.8906-1.7734-0.42578-3.4492-0.64062-5.0312-0.64062-2.0938 0-3.6484 0.29297-4.6562 0.875-1 0.57422-1.5 1.4688-1.5 2.6875 0 0.90625 0.33594 1.6172 1.0156 2.125 0.67578 0.51172 1.9062 0.94922 3.6875 1.3125l3.7344 0.75c3.7812 0.76172 6.4688 1.918 8.0625 3.4688 1.6016 1.543 2.4062 3.7461 2.4062 6.6094 0 3.75-1.1172 6.543-3.3438 8.375-2.2305 1.8242-5.6328 2.7344-10.203 2.7344-2.1562 0-4.3242-0.20312-6.5-0.60938-2.168-0.40625-4.3398-1.0156-6.5156-1.8281v-7.4062c2.1758 1.1562 4.2734 2.0273 6.2969 2.6094 2.0312 0.58594 3.9883 0.875 5.875 0.875 1.9141 0 3.3789-0.31641 4.3906-0.95312 1.0195-0.63281 1.5312-1.5469 1.5312-2.7344 0-1.0625-0.34375-1.8789-1.0312-2.4531-0.6875-0.58203-2.0703-1.1016-4.1406-1.5625l-3.3906-0.75c-3.4062-0.72656-5.8984-1.8906-7.4688-3.4844-1.5742-1.5938-2.3594-3.7422-2.3594-6.4531 0-3.3828 1.0938-5.9883 3.2812-7.8125 2.1875-1.8203 5.332-2.7344 9.4375-2.7344 1.875 0 3.7969 0.14062 5.7656 0.42188 1.9766 0.28125 4.0234 0.70312 6.1406 1.2656z"/>
    </symbol>
    <symbol id="o" overflow="visible">
      <path d="m27.578-21.281c1.0312-1.582 2.2539-2.7852 3.6719-3.6094 1.4258-0.83203 2.9883-1.25 4.6875-1.25 2.9375 0 5.1719 0.90625 6.7031 2.7188 1.5312 1.8047 2.2969 4.4297 2.2969 7.875v15.547h-8.2031v-13.312c0.019531-0.19531 0.03125-0.39844 0.03125-0.60938 0.007813-0.21875 0.015625-0.51953 0.015625-0.90625 0-1.8125-0.26562-3.125-0.79688-3.9375s-1.3906-1.2188-2.5781-1.2188c-1.5547 0-2.75 0.64062-3.5938 1.9219-0.84375 1.2734-1.2773 3.1172-1.2969 5.5312v12.531h-8.2031v-13.312c0-2.8203-0.24609-4.6406-0.73438-5.4531-0.49219-0.8125-1.3555-1.2188-2.5938-1.2188-1.5742 0-2.7891 0.64062-3.6406 1.9219-0.84375 1.2812-1.2656 3.1172-1.2656 5.5v12.562h-8.2031v-25.531h8.2031v3.75c1-1.4453 2.1484-2.5352 3.4531-3.2656 1.3008-0.72656 2.7344-1.0938 4.2969-1.0938 1.7578 0 3.3164 0.42969 4.6719 1.2812 1.3516 0.84375 2.3789 2.0391 3.0781 3.5781z"/>
    </symbol>
    <symbol id="c" overflow="visible">
      <path d="m23.859-24.719v6.1875c-1.75-0.72656-3.4375-1.2734-5.0625-1.6406-1.625-0.36328-3.1562-0.54688-4.5938-0.54688-1.5547 0-2.7109 0.19922-3.4688 0.59375-0.75 0.38672-1.125 0.98047-1.125 1.7812 0 0.65625 0.28516 1.1641 0.85938 1.5156 0.57031 0.34375 1.5938 0.60156 3.0625 0.76562l1.4375 0.20312c4.1758 0.53125 6.9844 1.4062 8.4219 2.625 1.4453 1.2109 2.1719 3.1172 2.1719 5.7188 0 2.7188-1.0078 4.7617-3.0156 6.125-2 1.3672-4.9922 2.0469-8.9688 2.0469-1.6875 0-3.4336-0.13672-5.2344-0.40625-1.793-0.25781-3.6406-0.65625-5.5469-1.1875v-6.2031c1.625 0.79297 3.2891 1.3867 5 1.7812 1.7188 0.39844 3.457 0.59375 5.2188 0.59375 1.5938 0 2.7891-0.21875 3.5938-0.65625 0.8125-0.4375 1.2188-1.0938 1.2188-1.9688 0-0.72656-0.28125-1.2695-0.84375-1.625-0.55469-0.35156-1.6562-0.62891-3.3125-0.82812l-1.4375-0.1875c-3.625-0.44531-6.168-1.2852-7.625-2.5156-1.4609-1.2383-2.1875-3.1094-2.1875-5.6094 0-2.707 0.92188-4.7109 2.7656-6.0156 1.8516-1.3125 4.6953-1.9688 8.5312-1.9688 1.5 0 3.0781 0.11719 4.7344 0.34375 1.6562 0.23047 3.457 0.58984 5.4062 1.0781z"/>
    </symbol>
    <symbol id="n" overflow="visible">
      <path d="m29.578-15.547v15.547h-8.2031v-11.844c0-2.2383-0.054688-3.7734-0.15625-4.6094-0.09375-0.83203-0.26172-1.4453-0.5-1.8438-0.32422-0.53125-0.76172-0.94141-1.3125-1.2344-0.54297-0.30078-1.1641-0.45312-1.8594-0.45312-1.6992 0-3.0391 0.65625-4.0156 1.9688-0.96875 1.3125-1.4531 3.1328-1.4531 5.4531v12.562h-8.1562v-35.453h8.1562v13.672c1.2266-1.4883 2.5352-2.5859 3.9219-3.2969 1.3828-0.70703 2.9102-1.0625 4.5781-1.0625 2.9453 0 5.1797 0.90625 6.7031 2.7188 1.5312 1.8047 2.2969 4.4297 2.2969 7.875z"/>
    </symbol>
    <symbol id="m" overflow="visible">
      <path d="m3.9219-25.531h8.1562v25.531h-8.1562zm0-9.9219h8.1562v6.6406h-8.1562z"/>
    </symbol>
    <symbol id="l" overflow="visible">
      <path d="m24.547-24.719v6.6406c-1.1172-0.75781-2.2305-1.3203-3.3438-1.6875-1.1172-0.36328-2.2734-0.54688-3.4688-0.54688-2.2812 0-4.0586 0.66797-5.3281 2-1.2734 1.3359-1.9062 3.1953-1.9062 5.5781 0 2.3867 0.63281 4.2461 1.9062 5.5781 1.2695 1.3242 3.0469 1.9844 5.3281 1.9844 1.2695 0 2.4766-0.1875 3.625-0.5625 1.1445-0.38281 2.207-0.94531 3.1875-1.6875v6.6719c-1.2812 0.46875-2.5781 0.81641-3.8906 1.0469-1.3125 0.23828-2.6328 0.35938-3.9531 0.35938-4.6055 0-8.2109-1.1758-10.812-3.5312-2.5938-2.3633-3.8906-5.6484-3.8906-9.8594 0-4.207 1.2969-7.4922 3.8906-9.8594 2.6016-2.3633 6.207-3.5469 10.812-3.5469 1.332 0 2.6484 0.12109 3.9531 0.35938 1.3008 0.23047 2.5977 0.58594 3.8906 1.0625z"/>
    </symbol>
    <symbol id="k" overflow="visible">
      <path d="m16.062-20.312c-1.8047 0-3.1836 0.65234-4.1406 1.9531-0.94922 1.3047-1.4219 3.1797-1.4219 5.625 0 2.4492 0.47266 4.3242 1.4219 5.625 0.95703 1.293 2.3359 1.9375 4.1406 1.9375 1.7812 0 3.1406-0.64453 4.0781-1.9375 0.94531-1.3008 1.4219-3.1758 1.4219-5.625 0-2.4453-0.47656-4.3203-1.4219-5.625-0.9375-1.3008-2.2969-1.9531-4.0781-1.9531zm0-5.8281c4.3945 0 7.8281 1.1875 10.297 3.5625 2.4688 2.3672 3.7031 5.6484 3.7031 9.8438 0 4.1875-1.2344 7.4688-3.7031 9.8438-2.4688 2.3672-5.9023 3.5469-10.297 3.5469-4.4062 0-7.8555-1.1797-10.344-3.5469-2.4805-2.375-3.7188-5.6562-3.7188-9.8438 0-4.1953 1.2383-7.4766 3.7188-9.8438 2.4883-2.375 5.9375-3.5625 10.344-3.5625z"/>
    </symbol>
    <symbol id="j" overflow="visible">
      <path d="m29.578-15.547v15.547h-8.2031v-11.891c0-2.207-0.054688-3.7266-0.15625-4.5625-0.09375-0.83203-0.26172-1.4453-0.5-1.8438-0.32422-0.53125-0.76172-0.94141-1.3125-1.2344-0.54297-0.30078-1.1641-0.45312-1.8594-0.45312-1.6992 0-3.0391 0.65625-4.0156 1.9688-0.96875 1.3125-1.4531 3.1328-1.4531 5.4531v12.562h-8.1562v-25.531h8.1562v3.75c1.2266-1.4883 2.5352-2.5859 3.9219-3.2969 1.3828-0.70703 2.9102-1.0625 4.5781-1.0625 2.9453 0 5.1797 0.90625 6.7031 2.7188 1.5312 1.8047 2.2969 4.4297 2.2969 7.875z"/>
    </symbol>
  </defs>
  <g transform="matrix(1, 0, 0, 1, 0, 70)">
    <path d="M 107.33 205.33 C 102.178 205.334 97.998 201.158 97.998 196.006 L 97.998 195.994 L 97.998 27.994 C 98.014 12.537 110.541 0.01 125.998 -0.006 L 573.998 -0.006 C 589.455 0.01 601.982 12.537 601.998 27.994 L 601.998 149.324 C 601.998 154.48 597.818 158.656 592.666 158.656 C 587.51 158.656 583.334 154.476 583.334 149.324 L 583.334 27.994 C 583.33 22.842 579.154 18.666 574.002 18.662 L 126.002 18.662 C 120.85 18.666 116.674 22.842 116.67 27.994 L 116.67 195.994 C 116.674 201.146 112.498 205.326 107.346 205.326 L 107.334 205.326 L 107.33 205.33 Z"/>
    <path d="M 378 522.67 L 340.668 522.67 C 335.512 522.67 331.336 518.49 331.336 513.338 C 331.336 508.182 335.516 504.006 340.668 504.006 L 378 504.006 C 383.156 504.006 387.332 508.186 387.332 513.338 C 387.332 518.494 383.152 522.67 378 522.67 Z"/>
    <path d="M 228.67 522.67 L 126 522.67 C 110.543 522.654 98.016 510.127 98 494.67 L 98 326.67 C 98 321.514 102.18 317.338 107.332 317.338 C 112.488 317.338 116.664 321.518 116.664 326.67 L 116.664 494.67 C 116.668 499.822 120.844 503.998 125.996 504.002 L 228.666 504.002 C 233.822 504.002 237.998 508.182 237.998 513.334 C 237.998 518.49 233.818 522.666 228.666 522.666 L 228.67 522.67 Z"/>
    <path d="M 574 522.67 L 471.33 522.67 C 466.174 522.67 461.998 518.49 461.998 513.338 C 461.998 508.182 466.178 504.006 471.33 504.006 L 574 504.006 C 579.152 504.002 583.328 499.826 583.332 494.674 L 583.332 270.674 C 583.332 265.518 587.512 261.342 592.664 261.342 C 597.82 261.342 601.996 265.522 601.996 270.674 L 601.996 494.674 C 601.98 510.131 589.453 522.658 573.996 522.674 L 574 522.67 Z"/>
    <path d="M 163.33 93.332 C 147.865 93.332 135.33 80.797 135.33 65.332 C 135.33 49.867 147.865 37.332 163.33 37.332 C 178.795 37.332 191.33 49.867 191.33 65.332 C 191.314 80.789 178.787 93.316 163.33 93.332 Z M 163.33 56 C 158.174 56 153.998 60.18 153.998 65.332 C 153.998 70.488 158.178 74.664 163.33 74.664 C 168.486 74.664 172.662 70.484 172.662 65.332 C 172.658 60.18 168.482 56.004 163.33 56 Z"/>
    <path d="M 536.67 93.332 C 521.205 93.332 508.67 80.797 508.67 65.332 C 508.67 49.867 521.205 37.332 536.67 37.332 C 552.135 37.332 564.67 49.867 564.67 65.332 C 564.654 80.789 552.127 93.316 536.67 93.332 Z M 536.67 56 C 531.514 56 527.338 60.18 527.338 65.332 C 527.338 70.488 531.518 74.664 536.67 74.664 C 541.826 74.664 546.002 70.484 546.002 65.332 C 545.998 60.18 541.822 56.004 536.67 56 Z"/>
    <path d="M 163.33 485.33 C 147.865 485.33 135.33 472.795 135.33 457.33 C 135.33 441.865 147.865 429.33 163.33 429.33 C 178.795 429.33 191.33 441.865 191.33 457.33 C 191.314 472.787 178.787 485.314 163.33 485.33 Z M 163.33 447.998 C 158.174 447.998 153.998 452.178 153.998 457.33 C 153.998 462.486 158.178 466.662 163.33 466.662 C 168.486 466.662 172.662 462.482 172.662 457.33 C 172.658 452.178 168.482 448.002 163.33 447.998 Z"/>
    <path d="M 536.67 485.33 C 521.205 485.33 508.67 472.795 508.67 457.33 C 508.67 441.865 521.205 429.33 536.67 429.33 C 552.135 429.33 564.67 441.865 564.67 457.33 C 564.654 472.787 552.127 485.314 536.67 485.33 Z M 536.67 447.998 C 531.514 447.998 527.338 452.178 527.338 457.33 C 527.338 462.486 531.518 466.662 536.67 466.662 C 541.826 466.662 546.002 462.482 546.002 457.33 C 545.998 452.178 541.822 448.002 536.67 447.998 Z"/>
    <path d="M 611.33 280 L 499.33 280 C 489.025 279.988 480.678 271.637 480.662 261.332 L 480.662 158.662 C 480.674 148.357 489.025 140.01 499.33 139.994 L 611.33 139.994 C 621.635 140.006 629.982 148.357 629.998 158.662 L 629.998 261.332 C 629.986 271.637 621.635 279.984 611.33 280 Z M 499.33 158.67 L 499.33 261.34 L 611.35 261.34 L 611.33 158.67 L 499.33 158.67 Z"/>
    <path d="M 471.33 485.33 L 377.998 485.33 C 372.846 485.334 368.666 481.158 368.666 476.006 L 368.666 475.994 L 368.666 373.324 C 368.678 363.019 377.029 354.672 387.334 354.656 L 462.002 354.656 C 472.307 354.668 480.654 363.019 480.67 373.324 L 480.67 475.994 C 480.674 481.146 476.498 485.326 471.346 485.326 L 471.334 485.326 L 471.33 485.33 Z M 387.33 466.662 L 461.998 466.662 L 461.998 373.33 L 387.33 373.33 L 387.33 466.662 Z"/>
    <path d="M 452.67 560 L 396.67 560 C 381.213 559.984 368.686 547.457 368.67 532 L 368.67 476 C 368.666 470.848 372.842 466.668 377.994 466.668 L 378.006 466.668 L 471.338 466.668 C 476.49 466.664 480.67 470.84 480.67 475.992 L 480.67 476.004 L 480.67 532.004 C 480.654 547.461 468.127 559.988 452.67 560.004 L 452.67 560 Z M 387.338 485.332 L 387.338 532 C 387.342 537.152 391.518 541.328 396.67 541.332 L 452.67 541.332 C 457.822 541.328 461.998 537.152 462.002 532 L 462.002 485.332 L 387.338 485.332 Z"/>
    <path d="M 331.33 550.67 L 237.998 550.67 C 227.693 550.658 219.346 542.307 219.33 532.002 L 219.33 438.67 C 219.342 428.365 227.693 420.018 237.998 420.002 L 331.33 420.002 C 341.635 420.014 349.982 428.365 349.998 438.67 L 349.998 532.002 C 349.986 542.307 341.635 550.654 331.33 550.67 Z M 237.998 438.67 L 237.998 532.002 L 331.35 532.002 L 331.33 438.67 L 237.998 438.67 Z"/>
    <path d="M 406 336 L 294 336 C 283.695 335.988 275.348 327.637 275.332 317.332 L 275.332 205.332 C 275.344 195.027 283.695 186.68 294 186.664 L 406 186.664 C 416.305 186.676 424.652 195.027 424.668 205.332 L 424.668 317.332 C 424.656 327.637 416.305 335.984 406 336 Z M 294 205.33 L 294 317.33 L 406.02 317.33 L 406 205.33 L 294 205.33 Z"/>
    <path d="M 219.33 56 C 218.111 55.984 216.904 55.73 215.783 55.254 C 214.65 54.781 213.611 54.121 212.701 53.293 C 211.881 52.363 211.189 51.324 210.643 50.211 C 210.197 49.082 209.975 47.879 209.994 46.664 C 210.025 44.191 210.994 41.824 212.701 40.039 C 214.904 37.852 218.053 36.906 221.096 37.516 C 221.713 37.606 222.314 37.797 222.873 38.082 C 223.447 38.266 223.982 38.551 224.459 38.922 C 224.994 39.242 225.494 39.621 225.955 40.043 C 227.658 41.832 228.627 44.199 228.662 46.668 C 228.646 47.887 228.392 49.094 227.916 50.215 C 227.443 51.344 226.779 52.387 225.955 53.297 C 225.045 54.121 224.006 54.781 222.873 55.258 C 221.752 55.734 220.549 55.988 219.326 56.004 L 219.33 56 Z"/>
    <path d="M 219.33 93.332 C 218.111 93.316 216.904 93.062 215.783 92.586 C 214.65 92.113 213.611 91.453 212.701 90.625 C 211.881 89.695 211.189 88.656 210.643 87.543 C 210.197 86.414 209.975 85.211 209.994 83.996 C 210.006 81.52 210.978 79.145 212.701 77.371 C 213.607 76.547 214.65 75.883 215.783 75.41 C 217.451 74.668 219.31 74.469 221.096 74.844 C 221.713 74.934 222.314 75.125 222.873 75.41 C 223.467 75.613 224.033 75.895 224.549 76.25 C 225.037 76.594 225.506 76.969 225.951 77.371 L 227.072 78.766 C 227.424 79.289 227.705 79.855 227.912 80.453 C 228.181 80.98 228.369 81.547 228.467 82.129 C 228.58 82.746 228.642 83.371 228.658 83.996 C 228.642 85.215 228.388 86.422 227.912 87.543 C 227.06 89.887 225.217 91.734 222.873 92.582 C 221.752 93.063 220.545 93.317 219.326 93.328 L 219.33 93.332 Z"/>
    <path d="M 256.67 56 C 255.451 55.984 254.244 55.73 253.123 55.254 C 251.99 54.781 250.951 54.121 250.041 53.293 C 249.217 52.383 248.557 51.344 248.08 50.211 C 247.604 49.09 247.35 47.883 247.334 46.664 C 247.365 44.191 248.334 41.824 250.041 40.039 C 252.244 37.852 255.393 36.906 258.436 37.516 C 259.053 37.606 259.654 37.797 260.213 38.082 C 260.807 38.285 261.373 38.566 261.889 38.922 C 262.377 39.266 262.846 39.641 263.295 40.043 C 264.998 41.832 265.967 44.199 266.002 46.668 C 265.986 47.887 265.732 49.094 265.256 50.215 C 264.783 51.344 264.119 52.387 263.295 53.297 C 262.385 54.121 261.346 54.781 260.213 55.258 C 259.092 55.734 257.889 55.988 256.666 56.004 L 256.67 56 Z"/>
    <path d="M 256.67 93.332 C 255.451 93.316 254.244 93.062 253.123 92.586 C 251.99 92.113 250.951 91.453 250.041 90.625 C 249.217 89.715 248.557 88.676 248.08 87.543 C 247.604 86.422 247.35 85.215 247.334 83.996 C 247.35 83.371 247.412 82.746 247.518 82.129 C 247.623 81.547 247.815 80.981 248.084 80.453 C 248.287 79.855 248.568 79.289 248.924 78.766 C 249.268 78.277 249.643 77.812 250.045 77.371 C 253.787 73.918 259.557 73.918 263.299 77.371 C 263.701 77.813 264.076 78.277 264.42 78.766 C 264.772 79.289 265.053 79.855 265.26 80.453 C 265.53 80.98 265.717 81.547 265.815 82.129 C 265.928 82.746 265.99 83.371 266.006 83.996 C 265.99 85.215 265.737 86.422 265.26 87.543 C 264.408 89.887 262.565 91.734 260.221 92.582 C 259.1 93.063 257.893 93.316 256.674 93.328 L 256.67 93.332 Z"/>
    <path d="M 294 56 C 292.781 55.984 291.574 55.73 290.453 55.254 C 289.32 54.781 288.281 54.121 287.371 53.293 C 286.52 52.387 285.824 51.344 285.313 50.211 C 284.867 49.082 284.645 47.879 284.664 46.664 C 284.664 41.508 288.844 37.332 293.996 37.332 C 299.152 37.332 303.328 41.512 303.328 46.664 C 303.312 47.883 303.059 49.09 302.582 50.211 C 302.109 51.34 301.445 52.383 300.621 53.293 C 298.863 55.047 296.477 56.02 293.996 56 L 294 56 Z"/>
    <path d="M 294 93.332 C 292.781 93.316 291.574 93.062 290.453 92.586 C 289.32 92.113 288.281 91.453 287.371 90.625 C 286.547 89.715 285.887 88.676 285.41 87.543 C 284.934 86.422 284.68 85.215 284.664 83.996 C 284.676 81.52 285.648 79.145 287.371 77.371 C 291.113 73.918 296.883 73.918 300.625 77.371 C 302.344 79.148 303.317 81.523 303.332 83.996 C 303.316 85.215 303.063 86.422 302.586 87.543 C 301.734 89.887 299.891 91.734 297.547 92.582 C 296.426 93.063 295.219 93.316 294 93.328 L 294 93.332 Z"/>
    <path d="M 331.33 56 C 330.111 55.984 328.904 55.73 327.783 55.254 C 326.65 54.781 325.611 54.121 324.701 53.293 C 323.881 52.363 323.189 51.324 322.643 50.211 C 322.197 49.082 321.975 47.879 321.994 46.664 C 322.025 44.191 322.994 41.824 324.701 40.039 C 326.904 37.852 330.053 36.906 333.096 37.516 C 333.713 37.606 334.314 37.797 334.873 38.082 C 335.467 38.285 336.033 38.566 336.549 38.922 C 337.037 39.266 337.506 39.641 337.955 40.043 C 339.658 41.832 340.627 44.199 340.662 46.668 C 340.646 47.887 340.392 49.094 339.916 50.215 C 339.443 51.344 338.779 52.387 337.955 53.297 C 336.197 55.051 333.81 56.024 331.33 56.004 L 331.33 56 Z"/>
    <path d="M 331.33 93.332 C 330.111 93.316 328.904 93.062 327.783 92.586 C 326.65 92.113 325.611 91.453 324.701 90.625 C 323.881 89.695 323.189 88.656 322.642 87.543 C 322.197 86.414 321.975 85.211 321.994 83.996 C 322.006 81.52 322.978 79.145 324.701 77.371 C 325.607 76.547 326.65 75.883 327.783 75.41 C 329.451 74.668 331.31 74.469 333.096 74.844 C 333.713 74.934 334.314 75.125 334.873 75.41 C 335.467 75.613 336.033 75.895 336.549 76.25 C 337.037 76.594 337.506 76.969 337.951 77.371 L 339.072 78.766 C 339.424 79.289 339.705 79.855 339.912 80.453 C 340.181 80.98 340.369 81.547 340.467 82.129 C 340.58 82.746 340.642 83.371 340.658 83.996 C 340.642 85.215 340.388 86.422 339.912 87.543 C 339.06 89.887 337.217 91.734 334.873 92.582 C 333.752 93.063 332.545 93.317 331.326 93.328 L 331.33 93.332 Z"/>
    <path d="M 368.67 56 C 366.186 56.023 363.799 55.051 362.045 53.293 C 361.221 52.383 360.561 51.344 360.084 50.211 C 359.608 49.09 359.354 47.883 359.338 46.664 C 359.35 44.188 360.322 41.813 362.045 40.039 C 365.674 36.379 371.584 36.356 375.244 39.984 C 377.025 41.75 378.017 44.156 378.006 46.664 C 377.99 47.883 377.736 49.09 377.26 50.211 C 376.787 51.34 376.123 52.383 375.299 53.293 C 373.541 55.047 371.154 56.02 368.674 56 L 368.67 56 Z"/>
    <path d="M 368.67 93.332 C 367.451 93.316 366.244 93.062 365.123 92.586 C 363.99 92.113 362.951 91.453 362.041 90.625 C 361.217 89.715 360.557 88.676 360.08 87.543 C 359.604 86.422 359.35 85.215 359.334 83.996 C 359.35 83.371 359.412 82.746 359.518 82.129 C 359.623 81.547 359.815 80.981 360.084 80.453 C 360.287 79.855 360.568 79.289 360.924 78.766 C 361.268 78.277 361.643 77.812 362.045 77.371 C 364.279 75.168 367.463 74.223 370.541 74.848 C 371.123 74.953 371.69 75.145 372.217 75.414 C 372.811 75.617 373.377 75.899 373.893 76.254 C 374.369 76.578 374.811 76.953 375.205 77.375 C 377.947 80.004 378.764 84.063 377.256 87.547 C 376.783 88.699 376.084 89.746 375.205 90.629 C 373.444 92.32 371.111 93.285 368.67 93.336 L 368.67 93.332 Z"/>
    <path d="M 406 56 C 403.516 56.023 401.129 55.051 399.375 53.293 C 398.523 52.387 397.828 51.344 397.316 50.211 C 396.871 49.082 396.648 47.879 396.668 46.664 C 396.637 41.508 400.793 37.309 405.945 37.277 C 408.453 37.262 410.859 38.258 412.625 40.039 C 414.344 41.816 415.312 44.191 415.332 46.664 C 415.316 47.883 415.062 49.09 414.586 50.211 C 414.113 51.34 413.449 52.383 412.625 53.293 C 411.715 54.117 410.676 54.777 409.543 55.254 C 408.422 55.73 407.219 55.984 405.996 56 L 406 56 Z"/>
    <path d="M 406 93.332 C 404.781 93.316 403.574 93.062 402.453 92.586 C 401.32 92.113 400.281 91.453 399.371 90.625 C 398.547 89.715 397.887 88.676 397.41 87.543 C 396.934 86.422 396.68 85.215 396.664 83.996 C 396.676 81.52 397.648 79.145 399.371 77.371 C 403.113 73.918 408.883 73.918 412.625 77.371 C 414.344 79.148 415.317 81.523 415.332 83.996 C 415.316 85.215 415.063 86.422 414.586 87.543 C 413.734 89.887 411.891 91.734 409.547 92.582 C 408.426 93.063 407.219 93.316 406 93.328 L 406 93.332 Z"/>
    <path d="M 443.33 56 C 440.846 56.023 438.459 55.051 436.705 53.293 C 435.881 52.383 435.221 51.344 434.744 50.211 C 434.268 49.09 434.014 47.883 433.998 46.664 C 433.998 41.508 438.178 37.332 443.33 37.332 C 448.486 37.332 452.662 41.512 452.662 46.664 C 452.646 47.883 452.392 49.09 451.916 50.211 C 451.443 51.34 450.779 52.383 449.955 53.293 C 448.197 55.047 445.811 56.02 443.33 56 Z"/>
    <path d="M 443.33 93.332 C 442.111 93.316 440.904 93.062 439.783 92.586 C 438.65 92.113 437.611 91.453 436.701 90.625 C 435.881 89.695 435.189 88.656 434.643 87.543 C 434.197 86.414 433.975 85.211 433.994 83.996 C 434.006 81.52 434.978 79.145 436.701 77.371 C 437.142 76.969 437.607 76.594 438.096 76.25 C 438.615 75.895 439.185 75.613 439.783 75.41 C 440.31 75.141 440.877 74.949 441.459 74.844 C 442.654 74.57 443.9 74.57 445.096 74.844 C 445.713 74.934 446.314 75.125 446.873 75.41 C 447.467 75.613 448.033 75.895 448.549 76.25 C 449.037 76.594 449.506 76.969 449.955 77.371 L 451.076 78.766 C 451.428 79.289 451.709 79.855 451.916 80.453 C 452.185 80.98 452.373 81.547 452.47 82.129 C 452.584 82.746 452.646 83.371 452.662 83.996 C 452.646 85.215 452.392 86.422 451.916 87.543 C 451.064 89.887 449.221 91.734 446.877 92.582 C 445.756 93.063 444.549 93.316 443.33 93.328 L 443.33 93.332 Z"/>
    <path d="M 480.67 56 C 478.186 56.023 475.799 55.051 474.045 53.293 C 473.225 52.363 472.533 51.324 471.986 50.211 C 471.541 49.082 471.318 47.879 471.338 46.664 C 471.369 44.191 472.338 41.824 474.045 40.039 C 474.936 39.195 475.982 38.531 477.127 38.078 C 480.604 36.621 484.615 37.395 487.299 40.039 C 489.002 41.828 489.971 44.195 490.006 46.664 C 490.022 47.879 489.799 49.082 489.35 50.211 C 488.811 51.328 488.119 52.363 487.299 53.293 C 486.389 54.117 485.35 54.777 484.217 55.254 C 483.096 55.73 481.889 55.984 480.67 56 Z"/>
    <path d="M 480.67 93.332 C 479.451 93.316 478.244 93.062 477.123 92.586 C 475.99 92.113 474.951 91.453 474.041 90.625 C 473.217 89.715 472.557 88.676 472.08 87.543 C 471.604 86.422 471.35 85.215 471.334 83.996 C 471.35 83.371 471.412 82.746 471.518 82.129 C 471.623 81.547 471.815 80.981 472.084 80.453 C 472.287 79.855 472.568 79.289 472.924 78.766 C 473.268 78.277 473.643 77.812 474.045 77.371 C 476.279 75.168 479.463 74.223 482.541 74.848 C 483.123 74.953 483.69 75.145 484.217 75.414 C 484.811 75.617 485.377 75.899 485.893 76.254 C 486.369 76.578 486.811 76.953 487.205 77.375 C 489.947 80.004 490.764 84.063 489.256 87.547 C 488.783 88.699 488.084 89.746 487.205 90.629 C 485.444 92.32 483.111 93.285 480.67 93.336 L 480.67 93.332 Z"/>
    <path d="M 144.67 336 L 88.67 336 C 78.365 335.988 70.018 327.637 70.002 317.332 L 70.002 205.332 C 70.014 195.027 78.365 186.68 88.67 186.664 L 144.67 186.664 C 149.822 186.66 154.002 190.836 154.002 195.988 L 154.002 196 L 154.002 326.67 C 154.006 331.822 149.83 336.002 144.678 336.002 L 144.666 336.002 L 144.67 336 Z M 88.67 205.33 L 88.67 317.33 L 135.338 317.33 L 135.338 205.33 L 88.67 205.33 Z"/>
    <path d="M 182 382.67 L 144.668 382.67 C 139.516 382.674 135.336 378.498 135.336 373.346 L 135.336 373.334 L 135.336 149.334 C 135.332 144.182 139.508 140.002 144.66 140.002 L 144.672 140.002 L 182.004 140.002 C 187.156 139.998 191.336 144.174 191.336 149.326 L 191.336 149.338 L 191.336 373.338 C 191.34 378.49 187.164 382.67 182.012 382.67 L 182 382.67 Z M 154 364.002 L 172.668 364.002 L 172.668 158.672 L 154 158.672 L 154 364.002 Z"/>
    <path d="M 210 158.67 L 182 158.67 C 176.844 158.67 172.668 154.49 172.668 149.338 C 172.668 144.182 176.848 140.006 182 140.006 L 210 140.006 C 215.156 140.006 219.332 144.186 219.332 149.338 C 219.332 154.494 215.152 158.67 210 158.67 Z"/>
    <path d="M 210 196 L 182 196 C 176.844 196 172.668 191.82 172.668 186.668 C 172.668 181.512 176.848 177.336 182 177.336 L 210 177.336 C 215.156 177.336 219.332 181.516 219.332 186.668 C 219.332 191.824 215.152 196 210 196 Z"/>
    <path d="M 210 233.33 L 182 233.33 C 176.844 233.33 172.668 229.15 172.668 223.998 C 172.668 218.842 176.848 214.666 182 214.666 L 210 214.666 C 215.156 214.666 219.332 218.846 219.332 223.998 C 219.332 229.154 215.152 233.33 210 233.33 Z"/>
    <path d="M 210 270.67 L 182 270.67 C 176.844 270.67 172.668 266.49 172.668 261.338 C 172.668 256.182 176.848 252.006 182 252.006 L 210 252.006 C 215.156 252.006 219.332 256.186 219.332 261.338 C 219.332 266.494 215.152 270.67 210 270.67 Z"/>
    <path d="M 210 308 L 182 308 C 176.844 308 172.668 303.82 172.668 298.668 C 172.668 293.512 176.848 289.336 182 289.336 L 210 289.336 C 215.156 289.336 219.332 293.516 219.332 298.668 C 219.332 303.824 215.152 308 210 308 Z"/>
    <path d="M 210 345.33 L 182 345.33 C 176.844 345.33 172.668 341.15 172.668 335.998 C 172.668 330.842 176.848 326.666 182 326.666 L 210 326.666 C 215.156 326.666 219.332 330.846 219.332 335.998 C 219.332 341.154 215.152 345.33 210 345.33 Z"/>
    <path d="M 210 382.67 L 182 382.67 C 176.844 382.67 172.668 378.49 172.668 373.338 C 172.668 368.182 176.848 364.006 182 364.006 L 210 364.006 C 215.156 364.006 219.332 368.186 219.332 373.338 C 219.332 378.494 215.152 382.67 210 382.67 Z"/>
    <path d="M 424.67 485.33 C 419.518 485.334 415.338 481.158 415.338 476.006 L 415.338 475.994 L 415.338 429.326 C 415.338 424.17 419.518 419.994 424.67 419.994 C 429.826 419.994 434.002 424.174 434.002 429.326 L 434.002 475.994 C 434.006 481.146 429.83 485.326 424.678 485.326 L 424.666 485.326 L 424.67 485.33 Z"/>
    <path d="M 266 504 C 260.848 504.004 256.668 499.828 256.668 494.676 L 256.668 494.664 L 256.668 475.996 C 256.668 470.84 260.848 466.664 266 466.664 C 271.156 466.664 275.332 470.844 275.332 475.996 L 275.332 494.664 C 275.336 499.816 271.16 503.996 266.008 503.996 L 265.996 503.996 L 266 504 Z"/>
    <path d="M 303.33 504 C 298.178 504.004 293.998 499.828 293.998 494.676 L 293.998 494.664 L 293.998 475.996 C 293.998 470.84 298.178 466.664 303.33 466.664 C 308.486 466.664 312.662 470.844 312.662 475.996 L 312.662 494.664 C 312.666 499.816 308.49 503.996 303.338 503.996 L 303.326 503.996 L 303.33 504 Z"/>
    <path d="M 564.67 196 L 527.338 196 C 522.182 196 518.006 191.82 518.006 186.668 C 518.006 181.512 522.186 177.336 527.338 177.336 L 564.67 177.336 C 569.826 177.336 574.002 181.516 574.002 186.668 C 574.002 191.824 569.822 196 564.67 196 Z"/>
    <path d="M 564.67 242.67 L 527.338 242.67 C 522.182 242.67 518.006 238.49 518.006 233.338 C 518.006 228.182 522.186 224.006 527.338 224.006 L 564.67 224.006 C 569.826 224.006 574.002 228.186 574.002 233.338 C 574.002 238.494 569.822 242.67 564.67 242.67 Z"/>
  </g>
</svg>