<?xml version="1.0" encoding="utf-8"?>
<svg height="512" viewBox="0 0 384 384" width="512" xmlns="http://www.w3.org/2000/svg" xmlns:xlink="http://www.w3.org/1999/xlink">
  <defs>
    <linearGradient gradientUnits="userSpaceOnUse" x1="191.998" y1="79.798" x2="191.998" y2="304.198" id="gradient-0">
      <stop offset="0" style="stop-color: rgba(253, 110, 53, 1)"/>
      <stop offset="1" style="stop-color: rgba(202, 59, 2, 1)"/>
    </linearGradient>
  </defs>
  <linearGradient id="a">
    <stop offset="0" stop-color="#ccc"/>
    <stop offset="1" stop-color="#999"/>
  </linearGradient>
  <linearGradient id="b">
    <stop offset="0" stop-color="#ccc"/>
    <stop offset="1" stop-color="#808080"/>
  </linearGradient>
  <linearGradient id="c">
    <stop offset="0" stop-color="#e6e6e6"/>
    <stop offset="1" stop-color="#808080"/>
  </linearGradient>
  <linearGradient id="d" gradientUnits="userSpaceOnUse" x1="192.761221" x2="192.761221" y1="290.499104" y2="204.071387">
    <stop offset="0" stop-color="#b8174c"/>
    <stop offset="1" stop-color="#d41919"/>
  </linearGradient>
  <filter id="e" color-interpolation-filters="sRGB" height="1.5102" width="1.1107" x="-.055335" y="-.25512">
    <feGaussianBlur stdDeviation="6.8986048"/>
  </filter>
  <filter id="f" color-interpolation-filters="sRGB" height="1.2128" width="1.0309" x="-.015462" y="-.10641">
    <feGaussianBlur stdDeviation="2.8418682"/>
  </filter>
  <filter id="g" color-interpolation-filters="sRGB" height="1.1227" width="1.0194" x="-.009685" y="-.06133">
    <feGaussianBlur stdDeviation="1.4318783"/>
  </filter>
  <filter id="h" color-interpolation-filters="sRGB" height="1.3641" width="1.0569" x="-.028456" y="-.18204">
    <feGaussianBlur stdDeviation="5.7271145"/>
  </filter>
  <radialGradient id="i" cx="146.978737" cy="135.69387" gradientUnits="userSpaceOnUse" r="15.131056">
    <stop offset="0" stop-color="#333"/>
    <stop offset="1"/>
  </radialGradient>
  <linearGradient id="j" gradientUnits="userSpaceOnUse" x1="187.276387" x2="187.276387" y1="239.744299" y2="104.630545">
    <stop offset="0" stop-color="#fff"/>
    <stop offset="1" stop-color="#4c4f5c"/>
  </linearGradient>
  <filter id="k" color-interpolation-filters="sRGB" height="1.216" width="1.216" x="-.108" y="-.108">
    <feGaussianBlur stdDeviation="10.098"/>
  </filter>
  <filter id="l" color-interpolation-filters="sRGB" height="1.3712" width="1.2366" x="-.1183" y="-.18559">
    <feGaussianBlur stdDeviation="1.0974128"/>
  </filter>
  <linearGradient id="m" gradientUnits="userSpaceOnUse" x1="207.943861" x2="208.919379" y1="338.081021" y2="299.844549" xlink:href="#c"/>
  <radialGradient id="n" cx="198.69" cy="270.6" gradientTransform="matrix(3.568 .00000008 .03147 .9666 -508.28 30.237)" gradientUnits="userSpaceOnUse" r="8.3393" xlink:href="#b"/>
  <linearGradient id="o" gradientTransform="matrix(1.2752 0 .055326 1.274 -52.835 -53.159)" gradientUnits="userSpaceOnUse" x1="193.26" x2="193.92" y1="254.04" y2="265.75" xlink:href="#a"/>
  <filter id="p" color-interpolation-filters="sRGB" height="2.7538" width="1.1112" x="-.055609" y="-.87692">
    <feGaussianBlur stdDeviation=".40637492"/>
  </filter>
  <radialGradient id="q" cx="198.69" cy="270.6" gradientTransform="matrix(3.568 .00000008 .03147 .9666 -474.59 30.237)" gradientUnits="userSpaceOnUse" r="8.3393" xlink:href="#b"/>
  <linearGradient id="r" gradientTransform="matrix(1.2752 0 .055326 1.274 -19.14 -53.159)" gradientUnits="userSpaceOnUse" x1="193.26" x2="193.92" y1="254.04" y2="265.75" xlink:href="#a"/>
  <linearGradient id="s" gradientUnits="userSpaceOnUse" x1="241.638861" x2="242.614379" y1="338.081021" y2="299.844549" xlink:href="#c"/>
  <radialGradient id="t" cx="198.69" cy="270.6" gradientTransform="matrix(-3.568 .00000008 -.03147 .9666 891.74 30.237)" gradientUnits="userSpaceOnUse" r="8.3393" xlink:href="#b"/>
  <linearGradient id="u" gradientTransform="matrix(-1.2752 0 -.055326 1.274 436.29 -53.159)" gradientUnits="userSpaceOnUse" x1="193.26" x2="193.92" y1="254.04" y2="265.75" xlink:href="#a"/>
  <linearGradient id="v" gradientTransform="matrix(-.95639 0 0 .95639 436.29 -53.159)" gradientUnits="userSpaceOnUse" x1="272.67" x2="273.69" y1="409.08" y2="369.1" xlink:href="#c"/>
  <radialGradient id="w" cx="198.69" cy="270.6" gradientTransform="matrix(-3.568 .00000008 -.03147 .9666 858.04 30.237)" gradientUnits="userSpaceOnUse" r="8.3393" xlink:href="#b"/>
  <linearGradient id="x" gradientTransform="matrix(-1.2752 0 -.055326 1.274 402.6 -53.159)" gradientUnits="userSpaceOnUse" x1="193.26" x2="193.92" y1="254.04" y2="265.75" xlink:href="#a"/>
  <linearGradient id="y" gradientTransform="matrix(-.95639 0 0 .95639 402.6 -53.159)" gradientUnits="userSpaceOnUse" x1="272.67" x2="273.69" y1="409.08" y2="369.1" xlink:href="#c"/>
  <filter id="z" color-interpolation-filters="sRGB" height="1.1184" width="1.3558" x="-.17791" y="-.059215">
    <feGaussianBlur stdDeviation="2.1169886"/>
  </filter>
  <filter id="A" color-interpolation-filters="sRGB" height="1.1184" width="1.426" x="-.21301" y="-.059218">
    <feGaussianBlur stdDeviation="2.1169886"/>
  </filter>
  <filter id="B" color-interpolation-filters="sRGB" height="1.0402" width="1.0267" x="-.013346" y="-.020111">
    <feGaussianBlur stdDeviation=".91681487"/>
  </filter>
  <rect fill="url(#d)" filter="url(#k)" height="224.4" rx="41.174" stroke-width=".70974" width="224.4" x="79.798" y="79.798"/>
  <rect height="224.4" rx="41.174" stroke-width=".70974" width="224.4" x="79.798" y="79.798" style="fill: url(#gradient-0);"/>
  <path d="m106.4 340.71v10c0 30.414 24.485 54.898 54.898 54.898h189.41c30.414 0 54.898-24.485 54.898-54.898v-10c0 30.414-24.485 54.898-54.898 54.898h-189.41c-30.414 0-54.898-24.485-54.898-54.898z" filter="url(#e)" opacity=".3" stroke-width=".94632" transform="scale(.75)"/>
  <rect fill="#ccc" height="13.571" rx="3.0542" stroke-width=".95639" width="21.293" x="136.18" y="98.84"/>
  <path d="m-281.87 97.314c-1.7692 0-3.1934 1.4242-3.1934 3.1934v7.8027c0 1.7692 1.4242 3.1953 3.1934 3.1953h15.877c1.7692 0 3.1934-1.4261 3.1934-3.1953v-7.8027c0-1.7692-1.4242-3.1934-3.1934-3.1934zm1.4023 1.2539h13.07c1.4565 0 2.6289 1.1724 2.6289 2.6289v6.4238c0 1.4565-1.1724 2.6289-2.6289 2.6289h-13.07c-1.4565 0-2.6289-1.1724-2.6289-2.6289v-6.4238c0-1.4565 1.1724-2.6289 2.6289-2.6289z" filter="url(#l)" opacity=".50924" transform="matrix(.98513 0 0 .98513 416.68 2.7678)"/>
  <rect fill="#ccc" height="13.571" rx="3.0542" stroke-width=".95639" width="21.293" x="166.89" y="98.84"/>
  <path d="m-281.87 97.314c-1.7692 0-3.1934 1.4242-3.1934 3.1934v7.8027c0 1.7692 1.4242 3.1953 3.1934 3.1953h15.877c1.7692 0 3.1934-1.4261 3.1934-3.1953v-7.8027c0-1.7692-1.4242-3.1934-3.1934-3.1934zm1.4023 1.2539h13.07c1.4565 0 2.6289 1.1724 2.6289 2.6289v6.4238c0 1.4565-1.1724 2.6289-2.6289 2.6289h-13.07c-1.4565 0-2.6289-1.1724-2.6289-2.6289v-6.4238c0-1.4565 1.1724-2.6289 2.6289-2.6289z" filter="url(#l)" opacity=".50924" transform="matrix(.98513 0 0 .98513 447.39 2.7678)"/>
  <rect fill="#ccc" height="13.571" rx="3.0542" stroke-width=".95639" width="21.293" x="196.92" y="98.84"/>
  <path d="m-281.87 97.314c-1.7692 0-3.1934 1.4242-3.1934 3.1934v7.8027c0 1.7692 1.4242 3.1953 3.1934 3.1953h15.877c1.7692 0 3.1934-1.4261 3.1934-3.1953v-7.8027c0-1.7692-1.4242-3.1934-3.1934-3.1934zm1.4023 1.2539h13.07c1.4565 0 2.6289 1.1724 2.6289 2.6289v6.4238c0 1.4565-1.1724 2.6289-2.6289 2.6289h-13.07c-1.4565 0-2.6289-1.1724-2.6289-2.6289v-6.4238c0-1.4565 1.1724-2.6289 2.6289-2.6289z" filter="url(#l)" opacity=".50924" transform="matrix(.98513 0 0 .98513 477.42 2.7678)"/>
  <rect fill="#ccc" height="13.571" rx="3.0542" stroke-width=".95639" width="21.293" x="226.95" y="98.84"/>
  <path d="m-281.87 97.314c-1.7692 0-3.1934 1.4242-3.1934 3.1934v7.8027c0 1.7692 1.4242 3.1953 3.1934 3.1953h15.877c1.7692 0 3.1934-1.4261 3.1934-3.1953v-7.8027c0-1.7692-1.4242-3.1934-3.1934-3.1934zm1.4023 1.2539h13.07c1.4565 0 2.6289 1.1724 2.6289 2.6289v6.4238c0 1.4565-1.1724 2.6289-2.6289 2.6289h-13.07c-1.4565 0-2.6289-1.1724-2.6289-2.6289v-6.4238c0-1.4565 1.1724-2.6289 2.6289-2.6289z" filter="url(#l)" opacity=".50924" transform="matrix(.98513 0 0 .98513 507.45 2.7678)"/>
  <g fill-opacity=".99608">
    <path d="m133.28 105.59h117.43c12.951 0 22.972 10.433 23.377 23.377l3.7691 120.29c.40559 12.945-9.6668 26.416-22.618 26.416h-126.49c-12.951 0-23.024-13.471-22.618-26.416l3.7691-120.29c.40558-12.945 10.426-23.377 23.377-23.377z" fill="#272a34" stroke-width=".3992"/>
    <path d="m134.49 105.59h115.02c12.685 0 22.5 9.9837 22.898 22.371l3.6917 115.11c.39729 12.388-9.4683 25.279-22.154 25.279h-123.89c-12.685 0-22.551-12.891-22.154-25.279l3.6917-115.11c.39729-12.388 10.212-22.371 22.898-22.371z" fill="#4c4f5c" stroke-width=".38649"/>
    <path d="m133.69 105.59h116.61c12.126 0 21.723 9.7633 21.888 21.888l1.5315 112.63c.16488 12.125-9.051 24.733-21.177 24.733h-121.1c-12.126 0-21.342-12.608-21.177-24.733l1.5315-112.63c.16488-12.125 9.7622-21.888 21.888-21.888z" fill="#272a34" stroke-width=".37377"/>
  </g>
  <path d="m136.53 105.59h110.93c11.535 0 20.598 9.2888 20.822 20.822l2.1334 109.85c.224 11.533-9.2866 20.822-20.822 20.822h-115.2c-11.535 0-21.046-9.2888-20.822-20.822l2.1334-109.85c.22396-11.533 9.2866-20.822 20.822-20.822z" fill="url(#j)" opacity=".1" stroke-width=".35557"/>
  <circle cx="146.99" cy="135.69" fill="url(#i)" opacity=".5" r="15.131" stroke-width=".35557"/>
  <path d="m2132.8 313.54c-1.7762 30.333-27.515 54.096-58.453 54.096h-323.98c-30.929 0-56.664-23.749-58.453-54.07l-.1074 5.5098c-.63 32.436 26.118 58.561 58.56 58.561h323.98c32.442.00001 59.19-26.124 58.56-58.561z" fill="#fff" filter="url(#f)" opacity=".1" transform="matrix(.35557 0 0 .35557 -487.97 122.81)"/>
  <path d="m467.34 297.32-.086 2.7129c-.8381 26.129 19.971 53.32 46.728 53.32h261.33c26.757 0 47.566-27.191 46.728-53.32l-.086-2.7129c-1.6377 24.559-21.517 48.533-46.642 48.533h-261.33c-25.125 0-45.004-23.975-46.642-48.533z" fill="#4c4f5c" fill-opacity=".99608" filter="url(#g)" stroke-width=".81522" transform="matrix(.47409 0 0 .47409 -113.62 102.97)"/>
  <path d="m1670.9 354.42-.037 1.2129c-1.1406 36.406 27.188 74.291 63.611 74.291h355.74c36.424 0 64.752-37.885 63.611-74.291l-.037-1.2129c-1.3377 34.864-28.745 69.504-63.574 69.504h-355.74c-34.829 0-62.237-34.64-63.574-69.504z" fill-opacity=".99608" filter="url(#h)" stroke-width="1.1227" transform="matrix(.35557 0 0 .35557 -487.97 123.52)"/>
  <path d="m263.38 334.12c-.19547 0-.38782.0193-.57031.0566-.18245.0375-.35947.0949-.52539.16602-.99853.42881-1.6644 1.4327-1.6133 2.6094l1.5 54.045c-.0552 1.3422.57207 2.5214 1.5742 3.2168.20043.13908.41458.25762.64258.35547.45643.19612.96249.30469 1.5.30469h2.002l3.4629 24.326c.14793 1.0392 1.6224.87289 1.8105 0l5.2441-24.326h2.0781c.53688 0 1.0546-.10713 1.5293-.30274.23679-.0976.46301-.21878.67579-.35742.42639-.27807.80007-.63256 1.0957-1.0449.14781-.20618.27626-.42807.38281-.66016.21311-.46418.33776-.97456.35156-1.5117l-1.9336-54.045c-.0596-1.3721-1.077-2.5115-2.3809-2.7754h-.002c-.18639-.0376-.37809-.0566-.57422-.0566z" filter="url(#A)" opacity=".4" transform="matrix(.95639 0 0 .95639 -52.835 -50.651)"/>
  <path d="m200.56 266.39c-1.5006 0-2.656 1.2081-2.5908 2.7085l.70795 16.309.0115 12.795-.78454 22.583c-.0844 2.0539 1.5008 3.7079 3.5547 3.7079h1.9146l3.3119 23.265c.14148.99386 1.5516.83482 1.7316 0l5.0154-23.265h1.9875c2.0539 0 3.8063-1.653 3.8592-3.7079l.58095-22.583-.2223-12.795-.70795-16.309c-.0652-1.5004-1.3274-2.7085-2.8281-2.7085z" fill="#ccc" stroke-width=".95639"/>
  <path d="m198.68 285.41h20.959l.22195 12.795h-21.17z" fill="url(#n)" stroke-width=".95639"/>
  <path d="m200.56 266.39h15.542c1.5006 0 2.7612 1.2079 2.8263 2.7084l.70828 16.31h-20.959l-.70828-16.31c-.0652-1.5004 1.0905-2.7084 2.5911-2.7084z" fill="url(#o)" stroke-width="1.2117"/>
  <path d="m198.69 298.2-.78453 22.583c-.0844 2.0539 1.5008 3.7079 3.5547 3.7079h1.9146l3.3119 23.265c.14148.99386 1.5516.83482 1.7316 0l5.0154-23.265h1.9875c2.0539 0 3.8063-1.653 3.8592-3.7079l.58093-22.583z" fill="url(#m)" stroke-width=".95638"/>
  <rect fill="#fff" filter="url(#p)" height="1.1122" opacity=".57001" rx=".5561" transform="matrix(1.2381 0 0 .97891 -45.212 28.541)" width="17.539" x="196.82" y="275.07"/>
  <rect fill="#fff" filter="url(#p)" height="1.1122" opacity=".57001" rx=".5561" transform="matrix(1.2381 0 0 .97891 -45.324 15.966)" width="17.539" x="196.82" y="275.07"/>
  <path d="m257.59 334.12c-.19547 0-.38782.0193-.57031.0566-.18245.0375-.35947.0949-.52539.16602-.99853.42881-1.6644 1.4327-1.6133 2.6094l6.2052 54.045c-.0552 1.3422.57207 2.5214 1.5742 3.2168.20043.13908.41458.25762.64258.35547.45643.19612.96249.30469 1.5.30469h2.002l1.286 24.326c.0554 1.0482 1.6224.87289 1.8105 0l7.421-24.326h2.0781c.53688 0 1.0546-.10713 1.5293-.30274.23679-.0976.46301-.21878.67579-.35742.42639-.27807.80007-.63256 1.0957-1.0449.14781-.20618.27626-.42807.38281-.66016.21311-.46418.33776-.97456.35156-1.5117l-6.6388-54.045c-.0596-1.3721-1.077-2.5115-2.3809-2.7754h-.002c-.18639-.0376-.37809-.0566-.57422-.0566z" filter="url(#z)" opacity=".4" transform="matrix(.95639 0 0 .95639 -19.14 -50.651)"/>
  <path d="m233.21 266.39c-1.5006 0-2.656 1.2081-2.5908 2.7085l1.7489 16.309.0115 12.795-1.8255 22.583c-.0844 2.0539 1.5008 3.7079 3.5547 3.7079h1.9146l1.2299 23.265c.053 1.0025 1.4824.81684 1.7316 0l7.0974-23.265h1.9875c2.0539 0 3.8063-1.653 3.8592-3.7079l1.6219-22.583-.2223-12.795-1.7489-16.309c-.0652-1.5004-1.3274-2.7085-2.8281-2.7085z" fill="#ccc" stroke-width=".95639"/>
  <path d="m232.37 285.41h20.959l.22193 12.795h-21.17z" fill="url(#q)" stroke-width=".95639"/>
  <path d="m233.21 266.39h15.542c1.5006 0 2.6662 1.2151 2.8263 2.7084l1.7493 16.31h-20.959l-1.7493-16.31c-.16015-1.4933 1.0905-2.7084 2.5911-2.7084z" fill="url(#r)" stroke-width="1.2117"/>
  <path d="m232.38 298.2-1.8255 22.583c-.0844 2.0539 1.5008 3.7079 3.5547 3.7079h1.9146l1.23 23.265c.053 1.0025 1.4824.81683 1.7316 0l7.0974-23.265h1.9875c2.0539 0 3.8064-1.653 3.8592-3.7079l1.6219-22.583z" fill="url(#s)" stroke-width=".95638"/>
  <rect fill="#fff" filter="url(#p)" height="1.1122" opacity=".57001" rx=".5561" transform="matrix(1.2381 0 0 .97891 -11.517 28.541)" width="17.539" x="196.82" y="275.07"/>
  <rect fill="#fff" filter="url(#p)" height="1.1122" opacity=".57001" rx=".5561" transform="matrix(1.2381 0 0 .97891 -11.629 15.966)" width="17.539" x="196.82" y="275.07"/>
  <path d="m263.38 334.12c-.19547 0-.38782.0193-.57031.0566-.18245.0375-.35947.0949-.52539.16602-.99853.42881-1.6644 1.4327-1.6133 2.6094l1.5 54.045c-.0552 1.3422.57207 2.5214 1.5742 3.2168.20043.13908.41458.25762.64258.35547.45643.19612.96249.30469 1.5.30469h2.002l3.4629 24.326c.14793 1.0392 1.6224.87289 1.8105 0l5.2441-24.326h2.0781c.53688 0 1.0546-.10713 1.5293-.30274.23679-.0976.46301-.21878.67579-.35742.42639-.27807.80007-.63256 1.0957-1.0449.14781-.20618.27626-.42807.38281-.66016.21311-.46418.33776-.97456.35156-1.5117l-1.9336-54.045c-.0596-1.3721-1.077-2.5115-2.3809-2.7754h-.002c-.18639-.0376-.37809-.0566-.57422-.0566z" filter="url(#A)" opacity=".4" transform="matrix(-.95639 0 0 .95639 436.29 -50.651)"/>
  <path d="m182.9 266.39c1.5006 0 2.656 1.2081 2.5909 2.7085l-.70796 16.309-.0115 12.795.78455 22.583c.0844 2.0539-1.5008 3.7079-3.5547 3.7079h-1.9146l-3.3119 23.265c-.14148.99386-1.5516.83482-1.7316 0l-5.0154-23.265h-1.9875c-2.0539 0-3.8063-1.653-3.8592-3.7079l-.58095-22.583.22231-12.795.70794-16.309c.0652-1.5004 1.3274-2.7085 2.8281-2.7085z" fill="#ccc" stroke-width=".95639"/>
  <path d="m184.78 285.41h-20.959l-.22194 12.795h21.17z" fill="url(#t)" stroke-width=".95639"/>
  <path d="m182.9 266.39h-15.542c-1.5006 0-2.7612 1.2079-2.8263 2.7084l-.70829 16.31h20.959l.70829-16.31c.0652-1.5004-1.0905-2.7084-2.5911-2.7084z" fill="url(#u)" stroke-width="1.2117"/>
  <path d="m184.77 298.2.78453 22.583c.0844 2.0539-1.5008 3.7079-3.5547 3.7079h-1.9146l-3.3119 23.265c-.14148.99386-1.5516.83482-1.7316 0l-5.0154-23.265h-1.9875c-2.0539 0-3.8063-1.653-3.8592-3.7079l-.58094-22.583z" fill="url(#v)" stroke-width=".95638"/>
  <rect fill="#fff" filter="url(#p)" height="1.1122" opacity=".57001" rx=".5561" transform="matrix(-1.2381 0 0 .97891 428.67 28.541)" width="17.539" x="196.82" y="275.07"/>
  <rect fill="#fff" filter="url(#p)" height="1.1122" opacity=".57001" rx=".5561" transform="matrix(-1.2381 0 0 .97891 428.78 15.966)" width="17.539" x="196.82" y="275.07"/>
  <path d="m257.59 334.12c-.19547 0-.38782.0193-.57031.0566-.18245.0375-.35947.0949-.52539.16602-.99853.42881-1.6644 1.4327-1.6133 2.6094l6.2052 54.045c-.0552 1.3422.57207 2.5214 1.5742 3.2168.20043.13908.41458.25762.64258.35547.45643.19612.96249.30469 1.5.30469h2.002l1.286 24.326c.0554 1.0482 1.6224.87289 1.8105 0l7.421-24.326h2.0781c.53688 0 1.0546-.10713 1.5293-.30274.23679-.0976.46301-.21878.67579-.35742.42639-.27807.80007-.63256 1.0957-1.0449.14781-.20618.27626-.42807.38281-.66016.21311-.46418.33776-.97456.35156-1.5117l-6.6388-54.045c-.0596-1.3721-1.077-2.5115-2.3809-2.7754h-.002c-.18639-.0376-.37809-.0566-.57422-.0566z" filter="url(#z)" opacity=".4" transform="matrix(-.95639 0 0 .95639 402.6 -50.651)"/>
  <path d="m150.24 266.39c1.5006 0 2.656 1.2081 2.5908 2.7085l-1.7489 16.309-.0115 12.795 1.8255 22.583c.0844 2.0539-1.5008 3.7079-3.5547 3.7079h-1.9146l-1.2299 23.265c-.053 1.0025-1.4824.81684-1.7316 0l-7.0974-23.265h-1.9875c-2.0539 0-3.8063-1.653-3.8592-3.7079l-1.6219-22.583.2223-12.795 1.7489-16.309c.0652-1.5004 1.3274-2.7085 2.8281-2.7085z" fill="#ccc" stroke-width=".95639"/>
  <path d="m151.08 285.41h-20.959l-.22193 12.795h21.17z" fill="url(#w)" stroke-width=".95639"/>
  <path d="m150.24 266.39h-15.542c-1.5006 0-2.6662 1.2151-2.8263 2.7084l-1.7493 16.31h20.959l1.7493-16.31c.16015-1.4933-1.0905-2.7084-2.5911-2.7084z" fill="url(#x)" stroke-width="1.2117"/>
  <path d="m151.07 298.2 1.8255 22.583c.0844 2.0539-1.5008 3.7079-3.5547 3.7079h-1.9146l-1.23 23.265c-.0531 1.0025-1.4824.81683-1.7316 0l-7.0974-23.265h-1.9875c-2.0539 0-3.8063-1.653-3.8592-3.7079l-1.6219-22.583z" fill="url(#y)" stroke-width=".95638"/>
  <rect fill="#fff" filter="url(#p)" height="1.1122" opacity=".57001" rx=".5561" transform="matrix(-1.2381 0 0 .97891 394.97 28.541)" width="17.539" x="196.82" y="275.07"/>
  <rect fill="#fff" filter="url(#p)" height="1.1122" opacity=".57001" rx=".5561" transform="matrix(-1.2381 0 0 .97891 395.09 15.966)" width="17.539" x="196.82" y="275.07"/>
  <path d="m179.6 354.69c-2.2704 0-4.0277 1.8386-4.2656 4.0566l-2.334 21.768-.29687 17.105 2.1621 30.111c.00001.00066-.00002.0013 0 .00196.0786 3.016 2.6385 5.4277 5.6445 5.4277h2.2793l9.3555 30.668c.24088.78961.98473 1.2196 1.7012 1.2617.35822.02104.735-.0567 1.0449-.29297.30991-.23627.517-.63461.54101-1.0879l1.6152-30.549h2.0781c3.0069 0 5.3638-2.4586 5.2402-5.4648v-.00977l-2.4356-30.1.01563-17.014 2.3301-21.721c.24603-2.2941-1.6827-4.1621-3.9531-4.1621h-20.723zm43.539 0c-2.2688 0-4.171 1.8195-4.2695 4.0879l-.94336 21.752-.29687 17.078.77344 30.123c.07754 3.0171 2.6398 5.4297 5.6465 5.4297h2.2461l6.6035 30.627c.17528.81312.92005 1.2723 1.6367 1.3086.35833.01814.73291-.06635 1.0469-.29297.31396-.22663.54367-.60293.60743-1.0508l4.3555-30.592h2.1191c3.0055 0 5.3595-2.4568 5.2383-5.4609v-.0039l-1.0449-30.098.01367-17.041.94336-21.736c.09854-2.2679-1.6843-4.1309-3.9531-4.1309h-20.723zm44.271 0c-2.2688 0-4.0536 1.8626-3.9551 4.1309l.94531 21.736.01368 17.041-1.0449 30.098v.0039c-.12124 3.0041 2.2328 5.4609 5.2383 5.4609h2.1191l4.3555 30.592c.06376.44785.29346.82415.60743 1.0508.31396.22662.68854.31111 1.0469.29297.71667-.03628 1.4614-.49548 1.6367-1.3086l6.6035-30.627h2.2461c3.0067 0 5.567-2.4128 5.6445-5.4297l.78906-30.625h-.02343l-.28711-16.576-.94532-21.752c-.09847-2.2681-1.9987-4.0879-4.2676-4.0879h-20.723zm43.539 0c-2.2704 0-4.1992 1.868-3.9531 4.1621l2.3301 21.721.01368 17.014-2.4336 30.1v.00977c-.12353 3.0062 2.2334 5.4648 5.2402 5.4648h2.0781l1.6152 30.549c.02396.45328.2311.85161.54101 1.0879.30992.23628.6867.31401 1.0449.29297.71646-.04208 1.4603-.47209 1.7012-1.2617l9.3555-30.668h2.2793c3.006 0 5.5659-2.4118 5.6445-5.4277l2.1621-30.113-.29687-17.105-2.334-21.768c-.23789-2.2181-1.9952-4.0566-4.2656-4.0566h-20.723zm-131.35 1h20.723c1.7312 0 3.1381 1.3686 2.957 3.0566l-2.334 21.771-.01563 17.107 2.4356 30.113c.10153 2.4708-1.7701 4.4219-4.2402 4.4219h-3.0273l-1.666 31.494c-.01139.21504-.06881.28844-.14648.34766-.07767.05921-.21231.09974-.38086.08984-.33709-.0198-.71137-.25714-.80273-.55664l-9.5703-31.375h-3.0215c-2.4703 0-4.5812-1.9941-4.6445-4.457v-.00977l-2.1621-30.102.29687-17.016 2.3301-21.725c.18919-1.764 1.5383-3.1621 3.2695-3.1621zm43.539 0h20.723c1.7328 0 3.0284 1.3547 2.9531 3.0879l-.94336 21.756-.01367 17.08 1.0449 30.123v.00196c.10154 2.471-1.7682 4.4219-4.2383 4.4219h-2.9863l-4.4766 31.451c-.03056.21473-.10598.30933-.20507.38086-.0991.07153-.24492.11188-.41016.10352-.33049-.01673-.64627-.21955-.71094-.51953l-6.7715-31.416h-3.0547c-2.4703 0-4.5832-1.9943-4.6465-4.457l-.77344-30.1.29687-17.043.94336-21.74c.07524-1.7328 1.5367-3.1309 3.2695-3.1309zm44.271 0h20.723c1.7328 0 3.1923 1.3978 3.2676 3.1309l.94532 21.74.29492 17.102-.77344 30.041c-.06331 2.4629-2.1742 4.457-4.6445 4.457h-3.0547l-6.7715 31.416c-.06466.29998-.38045.5028-.71094.51953-.16525.00836-.31106-.03199-.41016-.10352-.09909-.07153-.17451-.16614-.20507-.38086l-4.4766-31.451h-2.9863c-2.4701 0-4.3398-1.9508-4.2383-4.4219v-.00196l1.0449-30.123-.01368-17.08-.94531-21.756c-.0753-1.7329 1.2223-3.0879 2.9551-3.0879zm43.539 0h20.723c1.7312 0 3.0803 1.3981 3.2695 3.1621l2.3301 21.725.29687 17.016-2.1621 30.102v.00977c-.0633 2.4629-2.1743 4.457-4.6445 4.457h-3.0215l-9.5703 31.375c-.09137.29948-.46563.53684-.80274.55664-.16856.0099-.3032-.03064-.38086-.08984-.07765-.05921-.13512-.13263-.14648-.34766l-1.666-31.494h-3.0273c-2.4701 0-4.3418-1.9511-4.2402-4.4219l2.4336-30.113-.01368-17.107-2.334-21.771c-.18103-1.688 1.2258-3.0566 2.957-3.0566z" filter="url(#B)" opacity=".39746" transform="scale(.75)"/>
  <text style="fill: rgb(253, 110, 53); font-family: Belgium; font-size: 35px; white-space: pre;" x="135.652" y="195.933">mpcore</text>
</svg>